<svg width="22" height="21" viewBox="0 0 22 21" fill="none" xmlns="http://www.w3.org/2000/svg">
<path d="M21.5108 3.80891L9.54418 15.2289L5.09735 10.9889L6.57613 9.57891L9.54418 12.4089L20.032 2.40891L21.5108 3.80891ZM19.193 8.84891C19.3293 9.41891 19.4132 10.0189 19.4132 10.6289C19.4132 15.0489 15.6586 18.6289 11.023 18.6289C6.38735 18.6289 2.63272 15.0489 2.63272 10.6289C2.63272 6.20891 6.38735 2.62891 11.023 2.62891C12.68 2.62891 14.2113 3.08891 15.5117 3.87891L17.022 2.43891C15.323 1.29891 13.2569 0.628906 11.023 0.628906C5.23369 0.628906 0.535156 5.10891 0.535156 10.6289C0.535156 16.1489 5.23369 20.6289 11.023 20.6289C16.8122 20.6289 21.5108 16.1489 21.5108 10.6289C21.5108 9.43891 21.28 8.29891 20.8815 7.23891L19.193 8.84891Z" fill="white"/>
</svg>
