<svg width="20" height="20" viewBox="0 0 14 14" fill="none" xmlns="http://www.w3.org/2000/svg">
<circle cx="7" cy="7" r="7" fill="#7B7B7C"/>
<path d="M6.31071 7.66579C6.70348 7.00737 7.45841 6.61895 7.89709 6.03632C8.36127 5.42526 8.10113 4.28368 6.78509 4.28368C5.92304 4.28368 5.49967 4.89 5.32113 5.39211L4 4.87579C4.36216 3.86684 5.34664 3 6.77999 3C7.97871 3 8.79995 3.50684 9.21823 4.14158C9.57529 4.68632 9.78443 5.70474 9.23353 6.46263C8.62142 7.30105 8.03482 7.55684 7.71856 8.09684C7.59104 8.31474 7.54003 8.45684 7.54003 9.1579H6.06587C6.06077 8.78842 5.99955 8.18684 6.31071 7.66579ZM7.80528 11.0526C7.80528 11.5737 7.34619 12 6.78509 12C6.22399 12 5.76491 11.5737 5.76491 11.0526C5.76491 10.5316 6.22399 10.1053 6.78509 10.1053C7.34619 10.1053 7.80528 10.5316 7.80528 11.0526Z" fill="white"/>
</svg>
