<svg width="20" height="14" viewBox="0 0 20 14" fill="none" xmlns="http://www.w3.org/2000/svg">
<path d="M0.623024 6.74081C0.435824 5.80614 0.935022 5.41669 1.20802 5.3388C1.16907 4.36519 1.13796 2.20767 1.32516 1.36647C1.55916 0.314963 2.61216 0.431755 2.84615 0.431755C3.08015 0.431755 6.23914 0.782298 7.52613 0.899132C8.81313 1.01597 11.5041 0.431755 12.5571 0.54863C13.6101 0.665506 13.6101 3.23581 14.7801 2.88531C15.7161 2.6049 15.0141 1.60013 14.5461 1.1328C14.3121 0.938062 13.8909 0.478488 14.0781 0.198087C14.3121 -0.152414 15.4821 0.198087 15.4821 0.431755C15.4821 0.618689 15.7161 0.665422 15.8331 0.665422C16.0281 0.587533 16.5585 0.431755 17.1201 0.431755C17.8221 0.431755 19.4601 2.53476 19.4601 3.46943C19.4601 4.21717 18.8361 4.55988 18.5241 4.63777H16.6521C16.1841 4.63777 15.9111 5.183 15.8331 5.45561C15.6381 6.35133 15.0843 8.14279 14.4291 8.14279C13.7739 8.14279 13.6101 8.92168 13.6101 9.31112V13.0498H12.9081C12.3465 13.0498 12.2061 12.4267 12.2061 12.1151V10.129C12.2061 9.42796 11.9721 9.89529 11.7381 9.31112C11.5041 8.72695 11.2701 8.84379 9.98312 8.84379C8.95353 8.84379 8.07213 8.53223 7.76013 8.37645C7.44813 8.14278 6.75394 7.86238 6.47314 8.61012C6.19234 9.35786 5.42014 9.54479 5.06914 9.54479C4.91314 9.54479 4.48415 9.47469 4.01615 9.19429C3.54815 8.91389 3.35315 10.1679 3.31415 10.83V13.0498H2.61215C2.14416 13.0498 1.94916 12.6604 1.91016 12.4656V9.07746C1.91016 8.14279 2.14416 8.37645 2.49516 7.55862C2.84615 6.74078 2.49516 4.52097 2.26116 3.70313C2.07396 3.04886 1.94916 3.43052 1.91016 3.70313V6.27347C1.91016 7.09131 0.857023 7.90915 0.623024 6.74081Z" fill="#F7F8FA"/>
<path d="M6.12214 10.4795C6.12214 10.4795 5.06914 10.6353 4.71815 10.5963C4.75714 10.9079 4.83514 11.6478 4.83514 12.1151C4.83514 12.5824 5.14714 12.933 5.30314 13.0498H6.59014C6.62914 13.0109 6.63694 12.8629 6.35614 12.5825C6.07534 12.3021 6.08314 11.0637 6.12214 10.4795Z" fill="#F7F8FA"/>
<path d="M11.0361 10.0122H9.74912V12.4656C9.74912 12.6525 10.0611 12.933 10.2171 13.0498H11.2701C11.5509 13.0498 11.2311 12.5825 11.0361 12.3488V10.0122Z" fill="#F7F8FA"/>
</svg>
