<svg width="22" height="20" viewBox="0 0 22 20" fill="none" xmlns="http://www.w3.org/2000/svg">
<path d="M15.5065 15.125L15.0608 14.7C14.9034 14.55 14.7154 14.475 14.4965 14.475C14.2784 14.475 14.0906 14.55 13.9333 14.7C13.776 14.85 13.6974 15.025 13.6974 15.225C13.6974 15.425 13.776 15.6 13.9333 15.75L14.9559 16.725C15.1132 16.875 15.2967 16.95 15.5065 16.95C15.7163 16.95 15.8998 16.875 16.0571 16.725L18.6004 14.35C18.7577 14.2 18.8364 14.0207 18.8364 13.812C18.8364 13.604 18.7577 13.425 18.6004 13.275C18.4431 13.125 18.2554 13.05 18.0372 13.05C17.8184 13.05 17.6303 13.125 17.473 13.275L15.5065 15.125ZM15.2181 6C15.5152 6 15.7641 5.904 15.9648 5.712C16.1662 5.52067 16.2669 5.28333 16.2669 5C16.2669 4.71667 16.1662 4.479 15.9648 4.287C15.7641 4.09567 15.5152 4 15.2181 4H4.73028C4.43312 4 4.18386 4.09567 3.9825 4.287C3.78183 4.479 3.6815 4.71667 3.6815 5C3.6815 5.28333 3.78183 5.52067 3.9825 5.712C4.18386 5.904 4.43312 6 4.73028 6H15.2181ZM16.2669 20C14.816 20 13.5795 19.5127 12.5573 18.538C11.5344 17.5627 11.023 16.3833 11.023 15C11.023 13.6167 11.5344 12.4373 12.5573 11.462C13.5795 10.4873 14.816 10 16.2669 10C17.7177 10 18.9545 10.4873 19.9774 11.462C20.9997 12.4373 21.5108 13.6167 21.5108 15C21.5108 16.3833 20.9997 17.5627 19.9774 18.538C18.9545 19.5127 17.7177 20 16.2669 20ZM2.63272 0H17.3156C17.8925 0 18.3864 0.195667 18.7976 0.587C19.208 0.979 19.4132 1.45 19.4132 2V8.675C18.9238 8.44167 18.4127 8.27067 17.8799 8.162C17.3464 8.054 16.8087 8 16.2669 8H4.73028C4.43312 8 4.18386 8.09567 3.9825 8.287C3.78183 8.479 3.6815 8.71667 3.6815 9C3.6815 9.28333 3.78183 9.52067 3.9825 9.712C4.18386 9.904 4.43312 10 4.73028 10H11.1278C10.8307 10.2833 10.5552 10.5917 10.3014 10.925C10.0483 11.2583 9.8256 11.6167 9.63333 12H4.73028C4.43312 12 4.18386 12.0957 3.9825 12.287C3.78183 12.479 3.6815 12.7167 3.6815 13C3.6815 13.2833 3.78183 13.5207 3.9825 13.712C4.18386 13.904 4.43312 14 4.73028 14H9.00406C8.9691 14.1667 8.94707 14.3293 8.93799 14.488C8.92959 14.646 8.9254 14.8167 8.9254 15C8.9254 15.7 9.02608 16.371 9.22745 17.013C9.42811 17.6543 9.72946 18.2667 10.1315 18.85C10.0441 18.8667 9.95216 18.854 9.85567 18.812C9.75988 18.7707 9.67703 18.7167 9.60711 18.65L8.76808 17.85C8.66321 17.75 8.54085 17.7 8.40101 17.7C8.26117 17.7 8.13881 17.75 8.03394 17.85L7.19491 18.65C7.09003 18.75 6.96768 18.8 6.82784 18.8C6.688 18.8 6.56564 18.75 6.46077 18.65L5.62174 17.85C5.51686 17.75 5.39451 17.7 5.25467 17.7C5.11483 17.7 4.99247 17.75 4.8876 17.85L4.04857 18.65C3.94369 18.75 3.82134 18.8 3.6815 18.8C3.54166 18.8 3.4193 18.75 3.31442 18.65L2.4754 17.85C2.37052 17.75 2.24816 17.7 2.10833 17.7C1.96849 17.7 1.84613 17.75 1.74125 17.85L0.902229 18.65L0.535156 18.875V2C0.535156 1.45 0.740368 0.979 1.15079 0.587C1.56191 0.195667 2.05589 0 2.63272 0Z" fill="#F7F8FA"/>
</svg>
