<svg width="22" height="18" viewBox="0 0 22 18" fill="none" xmlns="http://www.w3.org/2000/svg">
<path d="M1.85821 17.9531C1.57521 17.9531 1.33799 17.8609 1.14654 17.6766C0.955097 17.4922 0.859375 17.2638 0.859375 16.9912C0.859375 16.7187 0.955097 16.4902 1.14654 16.3058C1.33799 16.1215 1.57521 16.0293 1.85821 16.0293H5.85357V14.1054H2.85705C2.57405 14.1054 2.33682 14.0133 2.14538 13.8289C1.95394 13.6445 1.85821 13.4161 1.85821 13.1435C1.85821 12.871 1.95394 12.6425 2.14538 12.4582C2.33682 12.2738 2.57405 12.1816 2.85705 12.1816H5.85357V10.2578H3.90583C3.62283 10.2578 3.3856 10.1656 3.19416 9.98122C3.00272 9.79685 2.90699 9.5684 2.90699 9.29585C2.90699 9.02331 3.00272 8.79485 3.19416 8.61048C3.3856 8.42612 3.62283 8.33393 3.90583 8.33393H5.85357V5.49627L4.33034 2.32194C4.21381 2.08146 4.20132 1.83697 4.29288 1.58847C4.38444 1.33998 4.55508 1.15962 4.80479 1.04739C5.0545 0.935169 5.30837 0.923145 5.5664 1.01132C5.82443 1.0995 6.01172 1.26382 6.12825 1.5043L8.05101 5.44817H19.6375L18.1143 2.32194C17.9978 2.08146 17.9853 1.83697 18.0769 1.58847C18.1684 1.33998 18.3391 1.15962 18.5888 1.04739C18.8385 0.935169 19.0923 0.923145 19.3504 1.01132C19.6084 1.0995 19.7957 1.26382 19.9122 1.5043L21.6352 5.06341C21.7018 5.19166 21.7517 5.32393 21.785 5.4602C21.8183 5.59647 21.835 5.73675 21.835 5.88104V16.0293C21.835 16.5583 21.6394 17.0112 21.2482 17.388C20.857 17.7647 20.3867 17.9531 19.8373 17.9531H1.85821ZM11.8466 11.2197H15.842C16.125 11.2197 16.3622 11.1275 16.5536 10.9431C16.7451 10.7588 16.8408 10.5303 16.8408 10.2578C16.8408 9.98523 16.7451 9.75677 16.5536 9.5724C16.3622 9.38804 16.125 9.29585 15.842 9.29585H11.8466C11.5636 9.29585 11.3264 9.38804 11.1349 9.5724C10.9435 9.75677 10.8478 9.98523 10.8478 10.2578C10.8478 10.5303 10.9435 10.7588 11.1349 10.9431C11.3264 11.1275 11.5636 11.2197 11.8466 11.2197Z" fill="white"/>
</svg>
