<svg width="22" height="21" viewBox="0 0 22 21" fill="none" xmlns="http://www.w3.org/2000/svg">
<path d="M15.5065 15.2725L15.0608 14.8475C14.9034 14.6975 14.7154 14.6225 14.4965 14.6225C14.2784 14.6225 14.0906 14.6975 13.9333 14.8475C13.776 14.9975 13.6974 15.1725 13.6974 15.3725C13.6974 15.5725 13.776 15.7475 13.9333 15.8975L14.9559 16.8725C15.1132 17.0225 15.2967 17.0975 15.5065 17.0975C15.7163 17.0975 15.8998 17.0225 16.0571 16.8725L18.6004 14.4975C18.7577 14.3475 18.8364 14.1681 18.8364 13.9595C18.8364 13.7515 18.7577 13.5725 18.6004 13.4225C18.4431 13.2725 18.2554 13.1975 18.0372 13.1975C17.8184 13.1975 17.6303 13.2725 17.473 13.4225L15.5065 15.2725ZM15.2181 6.14746C15.5152 6.14746 15.7641 6.05146 15.9648 5.85946C16.1662 5.66813 16.2669 5.43079 16.2669 5.14746C16.2669 4.86413 16.1662 4.62646 15.9648 4.43446C15.7641 4.24313 15.5152 4.14746 15.2181 4.14746H4.73028C4.43312 4.14746 4.18386 4.24313 3.9825 4.43446C3.78183 4.62646 3.6815 4.86413 3.6815 5.14746C3.6815 5.43079 3.78183 5.66813 3.9825 5.85946C4.18386 6.05146 4.43312 6.14746 4.73028 6.14746H15.2181ZM16.2669 20.1475C14.816 20.1475 13.5795 19.6601 12.5573 18.6855C11.5344 17.7101 11.023 16.5308 11.023 15.1475C11.023 13.7641 11.5344 12.5848 12.5573 11.6095C13.5795 10.6348 14.816 10.1475 16.2669 10.1475C17.7177 10.1475 18.9545 10.6348 19.9774 11.6095C20.9997 12.5848 21.5108 13.7641 21.5108 15.1475C21.5108 16.5308 20.9997 17.7101 19.9774 18.6855C18.9545 19.6601 17.7177 20.1475 16.2669 20.1475ZM2.63272 0.147461H17.3156C17.8925 0.147461 18.3864 0.343127 18.7976 0.734461C19.208 1.12646 19.4132 1.59746 19.4132 2.14746V8.82246C18.9238 8.58913 18.4127 8.41813 17.8799 8.30946C17.3464 8.20146 16.8087 8.14746 16.2669 8.14746H4.73028C4.43312 8.14746 4.18386 8.24313 3.9825 8.43446C3.78183 8.62646 3.6815 8.86413 3.6815 9.14746C3.6815 9.43079 3.78183 9.66813 3.9825 9.85946C4.18386 10.0515 4.43312 10.1475 4.73028 10.1475H11.1278C10.8307 10.4308 10.5552 10.7391 10.3014 11.0725C10.0483 11.4058 9.8256 11.7641 9.63333 12.1475H4.73028C4.43312 12.1475 4.18386 12.2431 3.9825 12.4345C3.78183 12.6265 3.6815 12.8641 3.6815 13.1475C3.6815 13.4308 3.78183 13.6681 3.9825 13.8595C4.18386 14.0515 4.43312 14.1475 4.73028 14.1475H9.00406C8.9691 14.3141 8.94707 14.4768 8.93799 14.6355C8.92959 14.7935 8.9254 14.9641 8.9254 15.1475C8.9254 15.8475 9.02608 16.5185 9.22745 17.1605C9.42811 17.8018 9.72946 18.4141 10.1315 18.9975C10.0441 19.0141 9.95216 19.0015 9.85567 18.9595C9.75988 18.9181 9.67703 18.8641 9.60711 18.7975L8.76808 17.9975C8.66321 17.8975 8.54085 17.8475 8.40101 17.8475C8.26117 17.8475 8.13881 17.8975 8.03394 17.9975L7.19491 18.7975C7.09003 18.8975 6.96768 18.9475 6.82784 18.9475C6.688 18.9475 6.56564 18.8975 6.46077 18.7975L5.62174 17.9975C5.51686 17.8975 5.39451 17.8475 5.25467 17.8475C5.11483 17.8475 4.99247 17.8975 4.8876 17.9975L4.04857 18.7975C3.94369 18.8975 3.82134 18.9475 3.6815 18.9475C3.54166 18.9475 3.4193 18.8975 3.31442 18.7975L2.4754 17.9975C2.37052 17.8975 2.24816 17.8475 2.10833 17.8475C1.96849 17.8475 1.84613 17.8975 1.74125 17.9975L0.902229 18.7975L0.535156 19.0225V2.14746C0.535156 1.59746 0.740368 1.12646 1.15079 0.734461C1.56191 0.343127 2.05589 0.147461 2.63272 0.147461Z" fill="#F7F8FA"/>
</svg>
