<svg width="22" height="21" viewBox="0 0 22 21" fill="none" xmlns="http://www.w3.org/2000/svg">
<path d="M21.5108 4.03547L9.54418 15.4555L5.09735 11.2155L6.57613 9.80547L9.54418 12.6355L20.032 2.63547L21.5108 4.03547ZM19.193 9.07547C19.3293 9.64547 19.4132 10.2455 19.4132 10.8555C19.4132 15.2755 15.6586 18.8555 11.023 18.8555C6.38735 18.8555 2.63272 15.2755 2.63272 10.8555C2.63272 6.43547 6.38735 2.85547 11.023 2.85547C12.68 2.85547 14.2113 3.31547 15.5117 4.10547L17.022 2.66547C15.323 1.52547 13.2569 0.855469 11.023 0.855469C5.23369 0.855469 0.535156 5.33547 0.535156 10.8555C0.535156 16.3755 5.23369 20.8555 11.023 20.8555C16.8122 20.8555 21.5108 16.3755 21.5108 10.8555C21.5108 9.66547 21.28 8.52547 20.8815 7.46547L19.193 9.07547Z" fill="white"/>
</svg>
