<svg width="22" height="21" viewBox="0 0 22 21" fill="none" xmlns="http://www.w3.org/2000/svg">
<path d="M15.5065 15.498L15.0608 15.073C14.9034 14.923 14.7154 14.848 14.4965 14.848C14.2784 14.848 14.0906 14.923 13.9333 15.073C13.776 15.223 13.6974 15.398 13.6974 15.598C13.6974 15.798 13.776 15.973 13.9333 16.123L14.9559 17.098C15.1132 17.248 15.2967 17.323 15.5065 17.323C15.7163 17.323 15.8998 17.248 16.0571 17.098L18.6004 14.723C18.7577 14.573 18.8364 14.3937 18.8364 14.185C18.8364 13.977 18.7577 13.798 18.6004 13.648C18.4431 13.498 18.2554 13.423 18.0372 13.423C17.8184 13.423 17.6303 13.498 17.473 13.648L15.5065 15.498ZM15.2181 6.37305C15.5152 6.37305 15.7641 6.27705 15.9648 6.08505C16.1662 5.89371 16.2669 5.65638 16.2669 5.37305C16.2669 5.08971 16.1662 4.85205 15.9648 4.66005C15.7641 4.46871 15.5152 4.37305 15.2181 4.37305H4.73028C4.43312 4.37305 4.18386 4.46871 3.9825 4.66005C3.78183 4.85205 3.6815 5.08971 3.6815 5.37305C3.6815 5.65638 3.78183 5.89371 3.9825 6.08505C4.18386 6.27705 4.43312 6.37305 4.73028 6.37305H15.2181ZM16.2669 20.373C14.816 20.373 13.5795 19.8857 12.5573 18.911C11.5344 17.9357 11.023 16.7564 11.023 15.373C11.023 13.9897 11.5344 12.8104 12.5573 11.835C13.5795 10.8604 14.816 10.373 16.2669 10.373C17.7177 10.373 18.9545 10.8604 19.9774 11.835C20.9997 12.8104 21.5108 13.9897 21.5108 15.373C21.5108 16.7564 20.9997 17.9357 19.9774 18.911C18.9545 19.8857 17.7177 20.373 16.2669 20.373ZM2.63272 0.373047H17.3156C17.8925 0.373047 18.3864 0.568713 18.7976 0.960047C19.208 1.35205 19.4132 1.82305 19.4132 2.37305V9.04805C18.9238 8.81471 18.4127 8.64371 17.8799 8.53505C17.3464 8.42705 16.8087 8.37305 16.2669 8.37305H4.73028C4.43312 8.37305 4.18386 8.46871 3.9825 8.66005C3.78183 8.85205 3.6815 9.08971 3.6815 9.37305C3.6815 9.65638 3.78183 9.89371 3.9825 10.085C4.18386 10.277 4.43312 10.373 4.73028 10.373H11.1278C10.8307 10.6564 10.5552 10.9647 10.3014 11.298C10.0483 11.6314 9.8256 11.9897 9.63333 12.373H4.73028C4.43312 12.373 4.18386 12.4687 3.9825 12.66C3.78183 12.852 3.6815 13.0897 3.6815 13.373C3.6815 13.6564 3.78183 13.8937 3.9825 14.085C4.18386 14.277 4.43312 14.373 4.73028 14.373H9.00406C8.9691 14.5397 8.94707 14.7024 8.93799 14.861C8.92959 15.019 8.9254 15.1897 8.9254 15.373C8.9254 16.073 9.02608 16.744 9.22745 17.386C9.42811 18.0274 9.72946 18.6397 10.1315 19.223C10.0441 19.2397 9.95216 19.227 9.85567 19.185C9.75988 19.1437 9.67703 19.0897 9.60711 19.023L8.76808 18.223C8.66321 18.123 8.54085 18.073 8.40101 18.073C8.26117 18.073 8.13881 18.123 8.03394 18.223L7.19491 19.023C7.09003 19.123 6.96768 19.173 6.82784 19.173C6.688 19.173 6.56564 19.123 6.46077 19.023L5.62174 18.223C5.51686 18.123 5.39451 18.073 5.25467 18.073C5.11483 18.073 4.99247 18.123 4.8876 18.223L4.04857 19.023C3.94369 19.123 3.82134 19.173 3.6815 19.173C3.54166 19.173 3.4193 19.123 3.31442 19.023L2.4754 18.223C2.37052 18.123 2.24816 18.073 2.10833 18.073C1.96849 18.073 1.84613 18.123 1.74125 18.223L0.902229 19.023L0.535156 19.248V2.37305C0.535156 1.82305 0.740368 1.35205 1.15079 0.960047C1.56191 0.568713 2.05589 0.373047 2.63272 0.373047Z" fill="#F7F8FA"/>
</svg>
