<svg width="14" height="14" viewBox="0 0 14 14" fill="none" xmlns="http://www.w3.org/2000/svg">
<path d="M11.1984 7L8.39844 8.4V11.2C8.74844 12.1333 9.79844 14 11.1984 14C12.5984 14 13.6484 12.1333 13.9984 11.2V8.4L11.1984 7Z" fill="white"/>
<path d="M11.5484 5.6V3.85L7.69844 0H2.79844C1.67844 0 1.39844 0.933333 1.39844 1.4V11.55C1.39844 12.11 2.09844 12.4833 2.44844 12.6H7.69844C7.41844 12.32 7.1151 11.55 6.99844 11.2V10.5H3.84844V9.1H6.99844V7.7H3.84844V6.3H9.79844L11.5484 5.6Z" fill="white"/>
<path d="M10.5 4.5498H7V1.0498L10.5 4.5498Z" fill="#00ADB9"/>
</svg>
