<svg width="20" height="21" viewBox="0 0 20 21" fill="none" xmlns="http://www.w3.org/2000/svg">
<circle cx="10" cy="10.5" r="10" fill="#F7F8FA"/>
<path d="M9.059 13.324C8.819 13.324 8.699 13.204 8.699 12.964V12.136C8.699 11.74 8.801 11.359 9.005 10.993C9.209 10.627 9.455 10.306 9.743 10.03C10.031 9.748 10.319 9.475 10.607 9.211C10.895 8.941 11.141 8.65 11.345 8.338C11.549 8.026 11.651 7.711 11.651 7.393C11.651 6.859 11.483 6.448 11.147 6.16C10.817 5.872 10.382 5.728 9.842 5.728C9.302 5.728 8.87 5.89 8.546 6.214C8.228 6.538 8.024 6.985 7.934 7.555C7.898 7.783 7.772 7.897 7.556 7.897H6.044C5.924 7.897 5.834 7.864 5.774 7.798C5.714 7.732 5.69 7.639 5.702 7.519C5.822 6.331 6.251 5.395 6.989 4.711C7.727 4.027 8.651 3.685 9.761 3.685C10.937 3.685 11.918 4.036 12.704 4.738C13.496 5.434 13.892 6.31 13.892 7.366C13.892 7.852 13.79 8.302 13.586 8.716C13.382 9.13 13.136 9.481 12.848 9.769C12.56 10.057 12.272 10.33 11.984 10.588C11.696 10.84 11.45 11.107 11.246 11.389C11.042 11.671 10.94 11.956 10.94 12.244V12.964C10.94 13.204 10.82 13.324 10.58 13.324H9.059ZM8.717 17.248C8.417 16.948 8.267 16.588 8.267 16.168C8.267 15.748 8.417 15.385 8.717 15.079C9.023 14.767 9.389 14.611 9.815 14.611C10.235 14.611 10.595 14.764 10.895 15.07C11.201 15.376 11.354 15.742 11.354 16.168C11.354 16.594 11.201 16.957 10.895 17.257C10.595 17.551 10.235 17.698 9.815 17.698C9.389 17.698 9.023 17.548 8.717 17.248Z" fill="#00ADB9"/>
</svg>
