<svg width="60" height="60" viewBox="0 0 60 60" fill="none" xmlns="http://www.w3.org/2000/svg">
<circle cx="30.0214" cy="29.8923" r="29.3923" fill="url(#paint0_linear_25_1280)"/>
<path d="M17.6146 20.662C15.8554 20.4755 14.12 21.4406 13.3881 23.1309L12.15 25.9899C11.7112 27.0032 12.4501 28.1344 13.5543 28.1411C14.6557 28.1478 16.0211 28.0428 17.4005 27.5696" stroke="white" stroke-width="1.08652" stroke-miterlimit="10" stroke-linecap="round" stroke-linejoin="round"/>
<path d="M43.0326 20.6427C44.5733 20.7069 46.0071 21.6349 46.6549 23.1308L47.893 25.9898C48.3319 27.0031 47.5929 28.1343 46.4888 28.141C44.5827 28.1526 41.8148 27.758 39.622 25.7713" stroke="white" stroke-width="1.08652" stroke-miterlimit="10" stroke-linecap="round" stroke-linejoin="round"/>
<path d="M26.8729 19.206C26.8729 19.206 19.1295 16.8326 16.7927 13.0325C16.4642 12.4981 15.6461 12.6874 15.5845 13.3116C15.3172 16.0181 15.9346 20.4145 21.6188 23.5062" stroke="white" stroke-width="1.08652" stroke-miterlimit="10" stroke-linecap="round" stroke-linejoin="round"/>
<path d="M33.8497 19.206C33.8497 19.206 41.5932 16.8326 43.9299 13.0325C44.2585 12.4981 45.0766 12.6874 45.1382 13.3116C45.4119 16.0827 44.7581 20.6251 38.6887 23.7251" stroke="white" stroke-width="1.08652" stroke-miterlimit="10" stroke-linecap="round" stroke-linejoin="round"/>
<path d="M26.4528 32.5735C25.6913 33.0253 24.7229 32.822 24.2022 32.1309" stroke="white" stroke-width="1.08652" stroke-miterlimit="10" stroke-linecap="round" stroke-linejoin="round"/>
<path d="M33.5902 32.5735C34.3517 33.0253 35.3202 32.822 35.8408 32.1309" stroke="white" stroke-width="1.08652" stroke-miterlimit="10" stroke-linecap="round" stroke-linejoin="round"/>
<path d="M30.0215 33.1353V34.8774" stroke="white" stroke-width="1.08652" stroke-miterlimit="10" stroke-linecap="round" stroke-linejoin="round"/>
<path d="M40.1551 31.2036C40.644 28.3203 39.8975 25.3299 38.0425 22.9968L36.1847 20.6605C35.4541 19.7416 34.3442 19.2061 33.1702 19.2061H26.8729C25.6989 19.2061 24.589 19.7416 23.8583 20.6605L22.0006 22.9968C19.763 25.8111 19.1384 29.5818 20.3492 32.9672L22.6151 39.3026" stroke="white" stroke-width="1.08652" stroke-miterlimit="10" stroke-linecap="round" stroke-linejoin="round"/>
<path d="M37.4279 39.3026L39.5194 33.4551" stroke="white" stroke-width="1.08652" stroke-miterlimit="10" stroke-linecap="round" stroke-linejoin="round"/>
<path d="M24.5548 44.7086C25.1531 46.1297 26.5484 47.0644 28.104 47.0644H30.0215H31.9391C33.4947 47.0644 34.8899 46.1297 35.4882 44.7087" stroke="white" stroke-width="1.08652" stroke-miterlimit="10" stroke-linecap="round" stroke-linejoin="round"/>
<path d="M34.7693 36.7061C32.5827 36.7061 31.662 38.1446 29.9933 38.1446C28.3245 38.1446 27.4039 36.7061 25.2172 36.7061C23.0306 36.7061 20.2686 44.4743 23.1457 44.4743C26.0228 44.4743 27.749 43.4386 29.9932 43.4386C32.2374 43.4386 33.9636 44.4743 36.8407 44.4743C39.7178 44.4743 36.9559 36.7061 34.7693 36.7061Z" stroke="white" stroke-width="1.08652" stroke-miterlimit="10" stroke-linecap="round" stroke-linejoin="round"/>
<path d="M25.8086 40.9063L26.2351 40.0284" stroke="white" stroke-width="1.08652" stroke-miterlimit="10" stroke-linecap="round" stroke-linejoin="round"/>
<path d="M34.2297 40.9063L33.8032 40.0284" stroke="white" stroke-width="1.08652" stroke-miterlimit="10" stroke-linecap="round" stroke-linejoin="round"/>
<path d="M35.3835 19.9061C34.7422 19.4557 33.9712 19.2061 33.1702 19.2061H26.8729C26.0719 19.2061 25.3009 19.4557 24.6596 19.9061V22.572C24.6596 23.7939 25.2214 24.9479 26.1832 25.7015C26.3763 25.8529 26.471 26.0948 26.4422 26.3385C26.426 26.4751 26.4176 26.614 26.4176 26.7549C26.4176 28.7297 28.0185 30.3305 29.9933 30.3305C31.9681 30.3305 33.5689 28.7297 33.5689 26.7549C33.5689 26.6164 33.5608 26.4799 33.5452 26.3456C33.5165 26.0981 33.6141 25.8531 33.8123 25.7023L33.8141 25.701C34.8029 24.9491 35.3834 23.7783 35.3834 22.5362V19.9061H35.3835Z" stroke="white" stroke-width="1.08652" stroke-miterlimit="10" stroke-linecap="round" stroke-linejoin="round"/>
<path d="M26.8729 19.2061C26.8478 19.2061 26.8228 19.2071 26.7978 19.2076C26.9549 21.0494 27.6659 23.5171 30.0216 23.5171C32.2324 23.5171 33.0462 21.0492 33.2362 19.2074C33.2142 19.207 33.1923 19.2061 33.1702 19.2061" stroke="white" stroke-width="1.08652" stroke-miterlimit="10" stroke-linecap="round" stroke-linejoin="round"/>
<path d="M30.0215 25.9708V27.6018" stroke="white" stroke-width="1.08652" stroke-miterlimit="10" stroke-linecap="round" stroke-linejoin="round"/>
<defs>
<linearGradient id="paint0_linear_25_1280" x1="0.62915" y1="29.8923" x2="59.4137" y2="29.8923" gradientUnits="userSpaceOnUse">
<stop offset="0.125" stop-color="#EB414B"/>
<stop offset="1" stop-color="#FF5309"/>
</linearGradient>
</defs>
</svg>
