<svg width="59" height="60" viewBox="0 0 59 60" fill="none" xmlns="http://www.w3.org/2000/svg">
<circle cx="29.3962" cy="29.9606" r="29.3923" fill="#01ACBC"/>
<path d="M16.9893 20.7299C15.2301 20.5434 13.4948 21.5085 12.7628 23.1988L11.5247 26.0578C11.0859 27.0711 11.8248 28.2023 12.929 28.209C14.0304 28.2157 15.3958 28.1106 16.7753 27.6375" stroke="white" stroke-width="1.08652" stroke-miterlimit="10" stroke-linecap="round" stroke-linejoin="round"/>
<path d="M42.4074 20.7109C43.9481 20.7752 45.3819 21.7031 46.0297 23.1991L47.2678 26.0581C47.7066 27.0713 46.9677 28.2025 45.8635 28.2093C43.9575 28.2209 41.1896 27.8262 38.9968 25.8395" stroke="white" stroke-width="1.08652" stroke-miterlimit="10" stroke-linecap="round" stroke-linejoin="round"/>
<path d="M26.2477 19.274C26.2477 19.274 18.5043 16.9006 16.1675 13.1004C15.839 12.5661 15.0209 12.7554 14.9592 13.3796C14.692 16.0861 15.3094 20.4825 20.9935 23.5742" stroke="white" stroke-width="1.08652" stroke-miterlimit="10" stroke-linecap="round" stroke-linejoin="round"/>
<path d="M33.2246 19.274C33.2246 19.274 40.9681 16.9006 43.3048 13.1004C43.6334 12.5661 44.4514 12.7554 44.5131 13.3796C44.7867 16.1507 44.133 20.6931 38.0636 23.7931" stroke="white" stroke-width="1.08652" stroke-miterlimit="10" stroke-linecap="round" stroke-linejoin="round"/>
<path d="M25.8275 32.6419C25.066 33.0936 24.0976 32.8904 23.5769 32.1992" stroke="white" stroke-width="1.08652" stroke-miterlimit="10" stroke-linecap="round" stroke-linejoin="round"/>
<path d="M32.9648 32.6419C33.7263 33.0936 34.6948 32.8904 35.2155 32.1992" stroke="white" stroke-width="1.08652" stroke-miterlimit="10" stroke-linecap="round" stroke-linejoin="round"/>
<path d="M29.3962 33.2031V34.9453" stroke="white" stroke-width="1.08652" stroke-miterlimit="10" stroke-linecap="round" stroke-linejoin="round"/>
<path d="M39.5299 31.272C40.0188 28.3887 39.2723 25.3982 37.4173 23.0652L35.5596 20.7288C34.8289 19.8099 33.719 19.2744 32.545 19.2744H26.2477C25.0737 19.2744 23.9638 19.8099 23.2332 20.7288L21.3754 23.0652C19.1378 25.8794 18.5132 29.6501 19.724 33.0355L21.9899 39.3709" stroke="white" stroke-width="1.08652" stroke-miterlimit="10" stroke-linecap="round" stroke-linejoin="round"/>
<path d="M36.8027 39.371L38.8942 33.5234" stroke="white" stroke-width="1.08652" stroke-miterlimit="10" stroke-linecap="round" stroke-linejoin="round"/>
<path d="M23.9297 44.7764C24.528 46.1975 25.9232 47.1322 27.4789 47.1322H29.3964H31.3139C32.8695 47.1322 34.2648 46.1975 34.8631 44.7764" stroke="white" stroke-width="1.08652" stroke-miterlimit="10" stroke-linecap="round" stroke-linejoin="round"/>
<path d="M34.144 36.7744C31.9573 36.7744 31.0367 38.213 29.3679 38.213C27.6992 38.213 26.7785 36.7744 24.5919 36.7744C22.4052 36.7744 19.6432 44.5427 22.5203 44.5427C25.3974 44.5427 27.1237 43.5069 29.3679 43.5069C31.612 43.5069 33.3383 44.5427 36.2154 44.5427C39.0925 44.5427 36.3305 36.7744 34.144 36.7744Z" stroke="white" stroke-width="1.08652" stroke-miterlimit="10" stroke-linecap="round" stroke-linejoin="round"/>
<path d="M25.1833 40.9746L25.6099 40.0967" stroke="white" stroke-width="1.08652" stroke-miterlimit="10" stroke-linecap="round" stroke-linejoin="round"/>
<path d="M33.6045 40.9746L33.178 40.0967" stroke="white" stroke-width="1.08652" stroke-miterlimit="10" stroke-linecap="round" stroke-linejoin="round"/>
<path d="M34.7583 19.9744C34.117 19.5241 33.346 19.2744 32.545 19.2744H26.2477C25.4467 19.2744 24.6757 19.5241 24.0344 19.9744V22.6404C24.0344 23.8623 24.5962 25.0162 25.5579 25.7699C25.7511 25.9213 25.8458 26.1632 25.817 26.4069C25.8008 26.5434 25.7924 26.6824 25.7924 26.8232C25.7924 28.798 27.3933 30.3989 29.3681 30.3989C31.3428 30.3989 32.9437 28.798 32.9437 26.8232C32.9437 26.6848 32.9356 26.5482 32.92 26.4139C32.8913 26.1665 32.9888 25.9214 33.1871 25.7707L33.1888 25.7693C34.1776 25.0175 34.7582 23.8467 34.7582 22.6045V19.9744H34.7583Z" stroke="white" stroke-width="1.08652" stroke-miterlimit="10" stroke-linecap="round" stroke-linejoin="round"/>
<path d="M26.2477 19.2745C26.2226 19.2745 26.1976 19.2754 26.1726 19.2759C26.3296 21.1178 27.0407 23.5854 29.3964 23.5854C31.6071 23.5854 32.421 21.1176 32.6109 19.2757C32.589 19.2754 32.5671 19.2744 32.545 19.2744" stroke="white" stroke-width="1.08652" stroke-miterlimit="10" stroke-linecap="round" stroke-linejoin="round"/>
<path d="M29.3962 26.0391V27.6701" stroke="white" stroke-width="1.08652" stroke-miterlimit="10" stroke-linecap="round" stroke-linejoin="round"/>
</svg>
