<svg width="62" height="52" viewBox="0 0 62 52" fill="none" xmlns="http://www.w3.org/2000/svg">
<path fill-rule="evenodd" clip-rule="evenodd" d="M48.7587 7.24252V0.62207H42.1393C41.845 1.5048 40.7907 2.46108 40.3003 2.82889H32.5764C32.086 2.95149 31.1052 3.56449 31.1052 5.0357C31.1052 6.50691 32.086 7.11992 32.5764 7.24252H41.0359C43.9783 9.44934 44.3461 20.1156 44.3461 24.8971C44.3461 28.7222 38.4612 32.3757 35.5188 33.7243H27.0594C24.9997 33.7243 24.4847 32.0079 24.4847 31.1497V24.8971H6.83021C3.53725 24.8971 2.29033 27.7634 1.25841 30.1355C0.907222 30.9427 0.580936 31.6928 0.207379 32.2531C-0.96959 34.0186 3.1498 34.9503 5.35662 35.1955V36.2989C3.00268 37.1817 2.4142 40.8352 2.4142 42.5516C2.4142 45.494 4.17965 51.3788 11.2415 51.3788C18.3033 51.3788 20.0687 45.494 20.0687 42.5516H38.4589C40.2243 42.5516 41.6477 41.0804 42.1387 40.3448C41.6483 44.0228 42.7271 51.3788 50.9659 51.3788C59.2047 51.3788 60.0384 43.042 59.4254 38.8736L62 37.7701C60.0366 33.5629 57.4315 32.3502 55.6528 31.5221C55.0991 31.2643 54.6254 31.0438 54.2761 30.7819C52.8049 29.6785 52.4371 28.9429 52.8049 25.2649C53.1727 21.5868 46.5519 8.34593 45.8163 7.61032C45.2278 7.02184 47.5327 7.11992 48.7587 7.24252ZM55.3802 40.3448C55.6254 42.5516 55.0859 46.9652 50.9665 46.9652C46.8471 46.9652 46.3077 42.5516 46.5529 40.3448H55.3802ZM11.2438 38.8736C8.00718 38.8736 6.95281 41.3256 6.83021 42.5516C6.58501 44.0228 7.12445 46.9652 11.2438 46.9652C15.3632 46.9652 15.9027 44.0228 15.6575 42.5516C15.5349 41.3256 14.4805 38.8736 11.2438 38.8736Z" fill="#53AFBE"/>
<path d="M11.2454 14.5988V2.8291H7.68558C5.42617 2.8291 4.70377 4.79072 4.625 5.77152V17.5412C4.625 19.8951 6.58661 20.4836 7.56742 20.4836H20.8083C23.7507 20.4836 24.4863 18.522 24.4863 17.5412V5.77152C24.4863 3.71183 22.4299 2.9517 21.4017 2.8291H15.6591V14.5988C15.5365 15.0892 14.9235 16.07 13.4523 16.07C11.9811 16.07 11.3681 15.0892 11.2454 14.5988Z" fill="#53AFBE"/>
</svg>
