<svg width="38" height="38" viewBox="0 0 38 38" fill="none" xmlns="http://www.w3.org/2000/svg">
<rect x="1.06885" y="1.19043" width="35.8" height="35.8" stroke="#FF5309"/>
<path d="M13.7523 17.5V7.1L14.6643 8.044H11.3843V6.3H15.8323V17.5H13.7523ZM21.8301 6.14C22.8541 6.14 23.7234 6.35867 24.4381 6.796C25.1634 7.22267 25.7181 7.84667 26.1021 8.668C26.4861 9.48933 26.6781 10.5027 26.6781 11.708C26.6781 12.988 26.4434 14.0707 25.9741 14.956C25.5154 15.8413 24.8754 16.5133 24.0541 16.972C23.2328 17.4307 22.2781 17.66 21.1901 17.66C20.6248 17.66 20.0861 17.6013 19.5741 17.484C19.0621 17.3667 18.6194 17.1853 18.2461 16.94L19.0141 15.372C19.3234 15.5747 19.6594 15.7187 20.0221 15.804C20.3848 15.8787 20.7581 15.916 21.1421 15.916C22.1981 15.916 23.0354 15.5907 23.6541 14.94C24.2728 14.2893 24.5821 13.3293 24.5821 12.06C24.5821 11.8573 24.5768 11.6227 24.5661 11.356C24.5554 11.0787 24.5181 10.8013 24.4541 10.524L25.0941 11.228C24.9128 11.6653 24.6514 12.0333 24.3101 12.332C23.9688 12.62 23.5688 12.8387 23.1101 12.988C22.6514 13.1373 22.1448 13.212 21.5901 13.212C20.8648 13.212 20.2088 13.0733 19.6221 12.796C19.0461 12.508 18.5874 12.108 18.2461 11.596C17.9048 11.0733 17.7341 10.4653 17.7341 9.772C17.7341 9.02533 17.9154 8.38533 18.2781 7.852C18.6408 7.308 19.1314 6.88667 19.7501 6.588C20.3794 6.28933 21.0728 6.14 21.8301 6.14ZM21.9421 7.772C21.5154 7.772 21.1368 7.852 20.8061 8.012C20.4754 8.16133 20.2141 8.38 20.0221 8.668C19.8408 8.94533 19.7501 9.28133 19.7501 9.676C19.7501 10.2627 19.9528 10.7267 20.3581 11.068C20.7634 11.4093 21.3074 11.58 21.9901 11.58C22.4381 11.58 22.8328 11.5 23.1741 11.34C23.5154 11.1693 23.7821 10.94 23.9741 10.652C24.1661 10.3533 24.2621 10.0227 24.2621 9.66C24.2621 9.308 24.1714 8.99333 23.9901 8.716C23.8088 8.428 23.5474 8.19867 23.2061 8.028C22.8648 7.85733 22.4434 7.772 21.9421 7.772Z" fill="#FF5309"/>
<path d="M9.01315 28.9805V21.1405H10.2116L15.1284 27.1773H14.5348V21.1405H15.9796V28.9805H14.7812L9.86435 22.9437H10.458V28.9805H9.01315ZM20.6339 29.0589C20.0217 29.0589 19.4766 28.9282 18.9987 28.6669C18.5209 28.3981 18.1438 28.0322 17.8675 27.5693C17.5913 27.1063 17.4531 26.5799 17.4531 25.9901C17.4531 25.3927 17.5913 24.8663 17.8675 24.4109C18.1438 23.9479 18.5209 23.5858 18.9987 23.3245C19.4766 23.0631 20.0217 22.9325 20.6339 22.9325C21.2537 22.9325 21.8025 23.0631 22.2803 23.3245C22.7657 23.5858 23.1427 23.9442 23.4115 24.3997C23.6878 24.8551 23.8259 25.3853 23.8259 25.9901C23.8259 26.5799 23.6878 27.1063 23.4115 27.5693C23.1427 28.0322 22.7657 28.3981 22.2803 28.6669C21.8025 28.9282 21.2537 29.0589 20.6339 29.0589ZM20.6339 27.8605C20.9774 27.8605 21.2835 27.7858 21.5523 27.6365C21.8211 27.4871 22.0302 27.2706 22.1795 26.9869C22.3363 26.7031 22.4147 26.3709 22.4147 25.9901C22.4147 25.6018 22.3363 25.2695 22.1795 24.9933C22.0302 24.7095 21.8211 24.493 21.5523 24.3437C21.2835 24.1943 20.9811 24.1197 20.6451 24.1197C20.3017 24.1197 19.9955 24.1943 19.7267 24.3437C19.4654 24.493 19.2563 24.7095 19.0995 24.9933C18.9427 25.2695 18.8643 25.6018 18.8643 25.9901C18.8643 26.3709 18.9427 26.7031 19.0995 26.9869C19.2563 27.2706 19.4654 27.4871 19.7267 27.6365C19.9955 27.7858 20.2979 27.8605 20.6339 27.8605ZM26.591 28.9805L24.0262 22.9997H25.4822L27.6886 28.2749H26.9718L29.2566 22.9997H30.6006L28.0358 28.9805H26.591Z" fill="#FF5309"/>
</svg>
