<svg width="38" height="38" viewBox="0 0 38 38" fill="none" xmlns="http://www.w3.org/2000/svg">
<rect x="1.06885" y="0.799805" width="35.8" height="35.8" stroke="#FF5309"/>
<path d="M13.6117 17.0996V6.69961L14.5237 7.64361H11.2437V5.89961H15.6917V17.0996H13.6117ZM21.4335 17.2596C20.6441 17.2596 19.8708 17.1476 19.1135 16.9236C18.3668 16.6889 17.7375 16.3689 17.2255 15.9636L18.1215 14.3476C18.5268 14.6783 19.0175 14.9449 19.5935 15.1476C20.1695 15.3503 20.7721 15.4516 21.4015 15.4516C22.1481 15.4516 22.7295 15.3023 23.1455 15.0036C23.5615 14.6943 23.7695 14.2783 23.7695 13.7556C23.7695 13.2436 23.5775 12.8383 23.1935 12.5396C22.8095 12.2409 22.1908 12.0916 21.3375 12.0916H20.3135V10.6676L23.5135 6.85961L23.7855 7.64361H17.7695V5.89961H25.4015V7.29161L22.2015 11.0996L21.1135 10.4596H21.7375C23.1135 10.4596 24.1428 10.7689 24.8255 11.3876C25.5188 11.9956 25.8655 12.7796 25.8655 13.7396C25.8655 14.3689 25.7055 14.9503 25.3855 15.4836C25.0655 16.0169 24.5748 16.4489 23.9135 16.7796C23.2628 17.0996 22.4361 17.2596 21.4335 17.2596Z" fill="#FF5309"/>
<path d="M13.0454 28.6921C12.4332 28.6921 11.8694 28.5913 11.3542 28.3897C10.839 28.1881 10.391 27.9081 10.0102 27.5497C9.62944 27.1838 9.33451 26.7582 9.12544 26.2729C8.91638 25.7801 8.81184 25.2425 8.81184 24.6601C8.81184 24.0777 8.91638 23.5438 9.12544 23.0585C9.33451 22.5657 9.62944 22.1401 10.0102 21.7817C10.391 21.4158 10.839 21.1321 11.3542 20.9305C11.8694 20.7289 12.4294 20.6281 13.0342 20.6281C13.6465 20.6281 14.2065 20.7289 14.7142 20.9305C15.2294 21.1321 15.6774 21.4158 16.0582 21.7817C16.439 22.1401 16.734 22.5657 16.943 23.0585C17.1521 23.5438 17.2566 24.0777 17.2566 24.6601C17.2566 25.2425 17.1521 25.7801 16.943 26.2729C16.734 26.7657 16.439 27.1913 16.0582 27.5497C15.6774 27.9081 15.2294 28.1881 14.7142 28.3897C14.2065 28.5913 13.6502 28.6921 13.0454 28.6921ZM13.0342 27.4153C13.43 27.4153 13.7958 27.3481 14.1318 27.2137C14.4678 27.0793 14.759 26.8889 15.0054 26.6425C15.2518 26.3886 15.4422 26.0974 15.5766 25.7689C15.7185 25.4329 15.7894 25.0633 15.7894 24.6601C15.7894 24.2569 15.7185 23.891 15.5766 23.5625C15.4422 23.2265 15.2518 22.9353 15.0054 22.6889C14.759 22.435 14.4678 22.2409 14.1318 22.1065C13.7958 21.9721 13.43 21.9049 13.0342 21.9049C12.6385 21.9049 12.2726 21.9721 11.9366 22.1065C11.6081 22.2409 11.3169 22.435 11.063 22.6889C10.8166 22.9353 10.6225 23.2265 10.4806 23.5625C10.3462 23.891 10.279 24.2569 10.279 24.6601C10.279 25.0558 10.3462 25.4217 10.4806 25.7577C10.6225 26.0937 10.8166 26.3886 11.063 26.6425C11.3094 26.8889 11.6006 27.0793 11.9366 27.2137C12.2726 27.3481 12.6385 27.4153 13.0342 27.4153ZM21.4096 28.6585C20.7824 28.6585 20.2224 28.5278 19.7296 28.2665C19.2442 27.9977 18.8634 27.6318 18.5872 27.1689C18.3109 26.7059 18.1728 26.1795 18.1728 25.5897C18.1728 24.9923 18.3109 24.4659 18.5872 24.0105C18.8634 23.5475 19.2442 23.1854 19.7296 22.9241C20.2224 22.6627 20.7824 22.5321 21.4096 22.5321C21.992 22.5321 22.5034 22.6515 22.944 22.8905C23.392 23.1219 23.7317 23.4654 23.9632 23.9209L22.888 24.5481C22.7088 24.2643 22.4885 24.0553 22.2272 23.9209C21.9733 23.7865 21.697 23.7193 21.3984 23.7193C21.0549 23.7193 20.745 23.7939 20.4688 23.9433C20.1925 24.0926 19.976 24.3091 19.8192 24.5929C19.6624 24.8691 19.584 25.2014 19.584 25.5897C19.584 25.9779 19.6624 26.3139 19.8192 26.5977C19.976 26.8739 20.1925 27.0867 20.4688 27.2361C20.745 27.3854 21.0549 27.4601 21.3984 27.4601C21.697 27.4601 21.9733 27.3929 22.2272 27.2585C22.4885 27.1241 22.7088 26.915 22.888 26.6313L23.9632 27.2585C23.7317 27.7065 23.392 28.0537 22.944 28.3001C22.5034 28.539 21.992 28.6585 21.4096 28.6585ZM27.5011 28.6585C26.8441 28.6585 26.3363 28.4905 25.9779 28.1545C25.6195 27.811 25.4403 27.307 25.4403 26.6425V21.2777H26.8403V26.6089C26.8403 26.8926 26.9113 27.1129 27.0531 27.2697C27.2025 27.4265 27.4078 27.5049 27.6691 27.5049C27.9827 27.5049 28.2441 27.4227 28.4531 27.2585L28.8451 28.2553C28.6809 28.3897 28.4793 28.4905 28.2403 28.5577C28.0014 28.6249 27.755 28.6585 27.5011 28.6585ZM24.4547 23.7641V22.6441H28.4419V23.7641H24.4547Z" fill="#FF5309"/>
</svg>
