<svg width="38" height="37" viewBox="0 0 38 37" fill="none" xmlns="http://www.w3.org/2000/svg">
<rect x="1.06885" y="0.599609" width="35.8" height="35.8" stroke="#FF5309"/>
<path d="M16.273 17.0496C15.3876 17.0496 14.5876 16.8256 13.873 16.3776C13.169 15.9296 12.6143 15.279 12.209 14.4256C11.8036 13.5616 11.601 12.5163 11.601 11.2896C11.601 10.063 11.8036 9.02298 12.209 8.16965C12.6143 7.30565 13.169 6.64965 13.873 6.20165C14.5876 5.75365 15.3876 5.52965 16.273 5.52965C17.169 5.52965 17.969 5.75365 18.673 6.20165C19.377 6.64965 19.9316 7.30565 20.337 8.16965C20.753 9.02298 20.961 10.063 20.961 11.2896C20.961 12.5163 20.753 13.5616 20.337 14.4256C19.9316 15.279 19.377 15.9296 18.673 16.3776C17.969 16.8256 17.169 17.0496 16.273 17.0496ZM16.273 15.2416C16.7956 15.2416 17.249 15.103 17.633 14.8256C18.017 14.5376 18.3156 14.1003 18.529 13.5136C18.753 12.927 18.865 12.1856 18.865 11.2896C18.865 10.383 18.753 9.64165 18.529 9.06565C18.3156 8.47898 18.017 8.04698 17.633 7.76965C17.249 7.48165 16.7956 7.33765 16.273 7.33765C15.7716 7.33765 15.3236 7.48165 14.929 7.76965C14.545 8.04698 14.241 8.47898 14.017 9.06565C13.8036 9.64165 13.697 10.383 13.697 11.2896C13.697 12.1856 13.8036 12.927 14.017 13.5136C14.241 14.1003 14.545 14.5376 14.929 14.8256C15.3236 15.103 15.7716 15.2416 16.273 15.2416ZM24.143 16.8896V6.48965L25.055 7.43365H21.775V5.68965H26.223V16.8896H24.143Z" fill="#FF5309"/>
<path d="M11.6341 28.4811C11.1339 28.4811 10.6709 28.3841 10.2453 28.1899C9.82721 27.9958 9.48375 27.7158 9.21495 27.3499L10.0437 26.3531C10.2603 26.6518 10.4955 26.8758 10.7493 27.0251C11.0107 27.1745 11.2944 27.2491 11.6005 27.2491C12.4144 27.2491 12.8213 26.7675 12.8213 25.8043V21.7499H10.0325V20.5291H14.2773V25.7259C14.2773 26.6518 14.0496 27.3425 13.5941 27.7979C13.1461 28.2534 12.4928 28.4811 11.6341 28.4811ZM19.87 28.3691V27.1595L19.7916 26.9019V24.7851C19.7916 24.3745 19.6684 24.0571 19.422 23.8331C19.1756 23.6017 18.8023 23.4859 18.302 23.4859C17.966 23.4859 17.6337 23.5382 17.3052 23.6427C16.9841 23.7473 16.7116 23.8929 16.4876 24.0795L15.9388 23.0603C16.2599 22.8139 16.6407 22.631 17.0812 22.5115C17.5292 22.3846 17.9921 22.3211 18.47 22.3211C19.3361 22.3211 20.0044 22.5302 20.4748 22.9483C20.9527 23.359 21.1916 23.9974 21.1916 24.8635V28.3691H19.87ZM17.9884 28.4475C17.5404 28.4475 17.1484 28.3729 16.8124 28.2235C16.4764 28.0667 16.2151 27.8539 16.0284 27.5851C15.8492 27.3089 15.7596 26.999 15.7596 26.6555C15.7596 26.3195 15.838 26.0171 15.9948 25.7483C16.1591 25.4795 16.4241 25.2667 16.79 25.1099C17.1559 24.9531 17.6412 24.8747 18.246 24.8747H19.982V25.8043H18.3468C17.8689 25.8043 17.5479 25.8827 17.3836 26.0395C17.2193 26.1889 17.1372 26.3755 17.1372 26.5995C17.1372 26.8534 17.238 27.055 17.4396 27.2043C17.6412 27.3537 17.9212 27.4283 18.2796 27.4283C18.6231 27.4283 18.9292 27.3499 19.198 27.1931C19.4743 27.0363 19.6721 26.8049 19.7916 26.4987L20.0268 27.3387C19.8924 27.6897 19.6497 27.9622 19.2988 28.1563C18.9553 28.3505 18.5185 28.4475 17.9884 28.4475ZM26.3819 22.3211C26.8598 22.3211 27.2854 22.4145 27.6587 22.6011C28.0395 22.7878 28.3382 23.0753 28.5547 23.4635C28.7713 23.8443 28.8795 24.3371 28.8795 24.9419V28.3691H27.4795V25.1211C27.4795 24.591 27.3526 24.1953 27.0987 23.9339C26.8523 23.6726 26.5051 23.5419 26.0571 23.5419C25.7286 23.5419 25.4374 23.6091 25.1835 23.7435C24.9297 23.8779 24.7318 24.0795 24.5899 24.3483C24.4555 24.6097 24.3883 24.9419 24.3883 25.3451V28.3691H22.9883V22.3883H24.3211V24.0011L24.0859 23.5083C24.295 23.1275 24.5974 22.8363 24.9931 22.6347C25.3963 22.4257 25.8593 22.3211 26.3819 22.3211Z" fill="#FF5309"/>
</svg>
