<svg width="38" height="38" viewBox="0 0 38 38" fill="none" xmlns="http://www.w3.org/2000/svg">
<rect x="1.06885" y="1.2002" width="35.8" height="35.8" stroke="#FF5309"/>
<path d="M13.5038 17.66C12.7145 17.66 11.9411 17.548 11.1838 17.324C10.4371 17.0893 9.80779 16.7693 9.29579 16.364L10.1918 14.748C10.5971 15.0787 11.0878 15.3453 11.6638 15.548C12.2398 15.7507 12.8425 15.852 13.4718 15.852C14.2185 15.852 14.7998 15.7027 15.2158 15.404C15.6318 15.0947 15.8398 14.6787 15.8398 14.156C15.8398 13.644 15.6478 13.2387 15.2638 12.94C14.8798 12.6413 14.2611 12.492 13.4078 12.492H12.3838V11.068L15.5838 7.26L15.8558 8.044H9.83979V6.3H17.4718V7.692L14.2718 11.5L13.1838 10.86H13.8078C15.1838 10.86 16.2131 11.1693 16.8958 11.788C17.5891 12.396 17.9358 13.18 17.9358 14.14C17.9358 14.7693 17.7758 15.3507 17.4558 15.884C17.1358 16.4173 16.6451 16.8493 15.9838 17.18C15.3331 17.5 14.5065 17.66 13.5038 17.66ZM23.9683 17.66C23.083 17.66 22.283 17.436 21.5683 16.988C20.8643 16.54 20.3096 15.8893 19.9043 15.036C19.499 14.172 19.2963 13.1267 19.2963 11.9C19.2963 10.6733 19.499 9.63333 19.9043 8.78C20.3096 7.916 20.8643 7.26 21.5683 6.812C22.283 6.364 23.083 6.14 23.9683 6.14C24.8643 6.14 25.6643 6.364 26.3683 6.812C27.0723 7.26 27.627 7.916 28.0323 8.78C28.4483 9.63333 28.6563 10.6733 28.6563 11.9C28.6563 13.1267 28.4483 14.172 28.0323 15.036C27.627 15.8893 27.0723 16.54 26.3683 16.988C25.6643 17.436 24.8643 17.66 23.9683 17.66ZM23.9683 15.852C24.491 15.852 24.9443 15.7133 25.3283 15.436C25.7123 15.148 26.011 14.7107 26.2243 14.124C26.4483 13.5373 26.5603 12.796 26.5603 11.9C26.5603 10.9933 26.4483 10.252 26.2243 9.676C26.011 9.08933 25.7123 8.65733 25.3283 8.38C24.9443 8.092 24.491 7.948 23.9683 7.948C23.467 7.948 23.019 8.092 22.6243 8.38C22.2403 8.65733 21.9363 9.08933 21.7123 9.676C21.499 10.252 21.3923 10.9933 21.3923 11.9C21.3923 12.796 21.499 13.5373 21.7123 14.124C21.9363 14.7107 22.2403 15.148 22.6243 15.436C23.019 15.7133 23.467 15.852 23.9683 15.852Z" fill="#FF5309"/>
<path d="M8.81764 28.9805V21.1405H12.2448C13.096 21.1405 13.8427 21.3047 14.4848 21.6333C15.127 21.9618 15.6272 22.4173 15.9856 22.9997C16.344 23.5821 16.5232 24.269 16.5232 25.0605C16.5232 25.8445 16.344 26.5314 15.9856 27.1213C15.6272 27.7037 15.127 28.1591 14.4848 28.4877C13.8427 28.8162 13.096 28.9805 12.2448 28.9805H8.81764ZM10.2736 27.7485H12.1776C12.7675 27.7485 13.2752 27.6365 13.7008 27.4125C14.1339 27.1885 14.4662 26.8749 14.6976 26.4717C14.9366 26.0685 15.056 25.5981 15.056 25.0605C15.056 24.5154 14.9366 24.045 14.6976 23.6493C14.4662 23.2461 14.1339 22.9325 13.7008 22.7085C13.2752 22.4845 12.7675 22.3725 12.1776 22.3725H10.2736V27.7485ZM20.7476 29.0589C20.083 29.0589 19.5006 28.9282 19.0004 28.6669C18.5076 28.3981 18.123 28.0322 17.8468 27.5693C17.578 27.1063 17.4436 26.5799 17.4436 25.9901C17.4436 25.3927 17.5742 24.8663 17.8356 24.4109C18.1044 23.9479 18.4702 23.5858 18.9332 23.3245C19.4036 23.0631 19.9374 22.9325 20.5348 22.9325C21.1172 22.9325 21.6361 23.0594 22.0916 23.3133C22.547 23.5671 22.9054 23.9255 23.1668 24.3885C23.4281 24.8514 23.5588 25.3965 23.5588 26.0237C23.5588 26.0834 23.555 26.1506 23.5476 26.2253C23.5476 26.2999 23.5438 26.3709 23.5364 26.4381H18.5524V25.5085H22.7972L22.2484 25.7997C22.2558 25.4562 22.1849 25.1538 22.0356 24.8925C21.8862 24.6311 21.6809 24.4258 21.4196 24.2765C21.1657 24.1271 20.8708 24.0525 20.5348 24.0525C20.1913 24.0525 19.8889 24.1271 19.6276 24.2765C19.3737 24.4258 19.1721 24.6349 19.0228 24.9037C18.8809 25.165 18.81 25.4749 18.81 25.8333V26.0573C18.81 26.4157 18.8921 26.733 19.0564 27.0093C19.2206 27.2855 19.4521 27.4983 19.7508 27.6477C20.0494 27.797 20.3929 27.8717 20.7812 27.8717C21.1172 27.8717 21.4196 27.8194 21.6884 27.7149C21.9572 27.6103 22.1961 27.4461 22.4052 27.2221L23.1556 28.0845C22.8868 28.3981 22.547 28.6407 22.1364 28.8125C21.7332 28.9767 21.2702 29.0589 20.7476 29.0589ZM27.6476 29.0589C27.0204 29.0589 26.4604 28.9282 25.9676 28.6669C25.4822 28.3981 25.1014 28.0322 24.8252 27.5693C24.5489 27.1063 24.4108 26.5799 24.4108 25.9901C24.4108 25.3927 24.5489 24.8663 24.8252 24.4109C25.1014 23.9479 25.4822 23.5858 25.9676 23.3245C26.4604 23.0631 27.0204 22.9325 27.6476 22.9325C28.23 22.9325 28.7414 23.0519 29.182 23.2909C29.63 23.5223 29.9697 23.8658 30.2012 24.3213L29.126 24.9485C28.9468 24.6647 28.7265 24.4557 28.4652 24.3213C28.2113 24.1869 27.935 24.1197 27.6364 24.1197C27.2929 24.1197 26.983 24.1943 26.7068 24.3437C26.4305 24.493 26.214 24.7095 26.0572 24.9933C25.9004 25.2695 25.822 25.6018 25.822 25.9901C25.822 26.3783 25.9004 26.7143 26.0572 26.9981C26.214 27.2743 26.4305 27.4871 26.7068 27.6365C26.983 27.7858 27.2929 27.8605 27.6364 27.8605C27.935 27.8605 28.2113 27.7933 28.4652 27.6589C28.7265 27.5245 28.9468 27.3154 29.126 27.0317L30.2012 27.6589C29.9697 28.1069 29.63 28.4541 29.182 28.7005C28.7414 28.9394 28.23 29.0589 27.6476 29.0589Z" fill="#FF5309"/>
</svg>
