<svg width="60" height="60" viewBox="0 0 60 60" fill="none" xmlns="http://www.w3.org/2000/svg">
<circle cx="30.2324" cy="29.9606" r="29.3923" fill="#01ACBC"/>
<path d="M44.1074 26.0951V21.9326C44.1074 19.3423 44.1074 18.0472 43.6033 17.0578C43.1599 16.1876 42.4524 15.4801 41.5821 15.0366C40.5928 14.5326 39.2977 14.5326 36.7074 14.5326H23.7574C21.1672 14.5326 19.8721 14.5326 18.8827 15.0366C18.0125 15.4801 17.3049 16.1876 16.8615 17.0578C16.3574 18.0472 16.3574 19.3423 16.3574 21.9326V34.8826C16.3574 37.4728 16.3574 38.7679 16.8615 39.7573C17.3049 40.6275 18.0125 41.335 18.8827 41.7785C19.8721 42.2826 21.1672 42.2826 23.7574 42.2826H31.0033M44.1074 23.7826H16.3574M36.3991 11.4492V17.6159M24.0658 11.4492V17.6159M39.4824 40.7409V31.4909M34.8574 36.1159H44.1074" stroke="white" stroke-width="2" stroke-linecap="round" stroke-linejoin="round"/>
</svg>
