<svg width="60" height="60" viewBox="0 0 60 60" fill="none" xmlns="http://www.w3.org/2000/svg">
<circle cx="29.8579" cy="29.8923" r="29.3923" fill="url(#paint0_linear_25_1315)"/>
<path d="M43.7329 26.0274V21.8649C43.7329 19.2747 43.7329 17.9796 43.2288 16.9902C42.7854 16.12 42.0779 15.4124 41.2076 14.969C40.2183 14.4649 38.9232 14.4649 36.3329 14.4649H23.3829C20.7927 14.4649 19.4975 14.4649 18.5082 14.969C17.638 15.4124 16.9304 16.12 16.487 16.9902C15.9829 17.9796 15.9829 19.2747 15.9829 21.8649V34.8149C15.9829 37.4052 15.9829 38.7003 16.487 39.6896C16.9304 40.5599 17.638 41.2674 18.5082 41.7108C19.4975 42.2149 20.7927 42.2149 23.3829 42.2149H30.6287M43.7329 23.7149H15.9829M36.0246 11.3816V17.5483M23.6912 11.3816V17.5483M39.1079 40.6733V31.4233M34.4829 36.0483H43.7329" stroke="white" stroke-width="2" stroke-linecap="round" stroke-linejoin="round"/>
<defs>
<linearGradient id="paint0_linear_25_1315" x1="0.465637" y1="29.8923" x2="59.2502" y2="29.8923" gradientUnits="userSpaceOnUse">
<stop offset="0.125" stop-color="#EB414B"/>
<stop offset="1" stop-color="#FF5309"/>
</linearGradient>
</defs>
</svg>
