<svg width="22" height="26" viewBox="0 0 22 26" fill="none" xmlns="http://www.w3.org/2000/svg">
<path d="M6.6 20.8C5.39 20.8 4.411 21.97 4.411 23.4C4.411 24.83 5.39 26 6.6 26C7.81 26 8.8 24.83 8.8 23.4C8.8 21.97 7.81 20.8 6.6 20.8ZM0 0V2.6H2.2L6.16 12.467L4.675 15.652C4.499 16.016 4.4 16.445 4.4 16.9C4.4 18.33 5.39 19.5 6.6 19.5H19.8V16.9H7.062C6.908 16.9 6.787 16.757 6.787 16.575L6.82 16.419L7.81 14.3H16.005C16.83 14.3 17.556 13.767 17.93 12.961L21.868 4.524C21.956 4.342 22 4.121 22 3.9C22 3.185 21.505 2.6 20.9 2.6H4.631L3.597 0H0ZM17.6 20.8C16.39 20.8 15.411 21.97 15.411 23.4C15.411 24.83 16.39 26 17.6 26C18.81 26 19.8 24.83 19.8 23.4C19.8 21.97 18.81 20.8 17.6 20.8Z" fill="#1E1E1E"/>
</svg>
