<svg width="28" height="36" viewBox="0 0 28 36" fill="none" xmlns="http://www.w3.org/2000/svg">
<path d="M4.62302 18.15C4.43582 17.2153 4.93502 16.8259 5.20802 16.748C5.16907 15.7744 5.13796 13.6168 5.32516 12.7756C5.55916 11.7241 6.61216 11.8409 6.84615 11.8409C7.08015 11.8409 10.2391 12.1915 11.5261 12.3083C12.8131 12.4251 15.5041 11.8409 16.5571 11.9578C17.6101 12.0747 17.6101 14.645 18.7801 14.2945C19.7161 14.0141 19.0141 13.0093 18.5461 12.542C18.3121 12.3472 17.8909 11.8877 18.0781 11.6073C18.3121 11.2568 19.4821 11.6073 19.4821 11.8409C19.4821 12.0279 19.7161 12.0746 19.8331 12.0746C20.0281 11.9967 20.5585 11.8409 21.1201 11.8409C21.8221 11.8409 23.4601 13.9439 23.4601 14.8786C23.4601 15.6263 22.8361 15.9691 22.5241 16.047H20.6521C20.1841 16.047 19.9111 16.5922 19.8331 16.8648C19.6381 17.7605 19.0843 19.552 18.4291 19.552C17.7739 19.552 17.6101 20.3309 17.6101 20.7203V24.459H16.9081C16.3465 24.459 16.2061 23.8359 16.2061 23.5243V21.5381C16.2061 20.8371 15.9721 21.3045 15.7381 20.7203C15.5041 20.1361 15.2701 20.253 13.9831 20.253C12.9535 20.253 12.0721 19.9414 11.7601 19.7856C11.4481 19.552 10.7539 19.2716 10.4731 20.0193C10.1923 20.767 9.42014 20.954 9.06914 20.954C8.91314 20.954 8.48415 20.8839 8.01615 20.6035C7.54815 20.3231 7.35315 21.5771 7.31415 22.2391V24.459H6.61215C6.14416 24.459 5.94916 24.0695 5.91016 23.8748V20.4866C5.91016 19.552 6.14416 19.7856 6.49516 18.9678C6.84615 18.15 6.49516 15.9301 6.26116 15.1123C6.07396 14.458 5.94916 14.8397 5.91016 15.1123V17.6827C5.91016 18.5005 4.85702 19.3183 4.62302 18.15Z" fill="#F7F8FA"/>
<path d="M10.1221 21.8887C10.1221 21.8887 9.06914 22.0445 8.71815 22.0055C8.75714 22.3171 8.83514 23.057 8.83514 23.5243C8.83514 23.9916 9.14714 24.3421 9.30314 24.459H10.5901C10.6291 24.4201 10.6369 24.2721 10.3561 23.9917C10.0753 23.7113 10.0831 22.4729 10.1221 21.8887Z" fill="#F7F8FA"/>
<path d="M15.0361 21.4213H13.7491V23.8748C13.7491 24.0617 14.0611 24.3421 14.2171 24.459H15.2701C15.5509 24.459 15.2311 23.9917 15.0361 23.758V21.4213Z" fill="#F7F8FA"/>
<path d="M15.292 30.9194C8.65396 31.8861 2.45088 27.539 1.43698 21.2097M15.292 30.9194L13.1966 28.9902M15.292 30.9194L13.7198 33.5729" stroke="#F7F8FA"/>
<path d="M12.5743 5.77452C19.0605 4.11739 25.7274 7.78754 27.4654 13.972M12.5743 5.77452L14.8795 7.47226M12.5743 5.77452L13.8307 2.97226" stroke="#F7F8FA"/>
</svg>
