<svg width="58" height="41" viewBox="0 0 58 41" fill="none" xmlns="http://www.w3.org/2000/svg">
<path d="M0.125943 21.0877C-0.449199 18.2118 1.08451 17.0135 1.92326 16.7738C1.80358 13.7781 1.70801 7.13959 2.28315 4.55127C3.00208 1.31587 6.23725 1.67523 6.95618 1.67523C7.67511 1.67523 17.3806 2.75382 21.3347 3.11331C25.2888 3.4728 33.5565 1.67523 36.7917 2.03485C40.0268 2.39447 40.0268 10.3031 43.6215 9.22462C46.4972 8.36185 44.3404 5.27025 42.9025 3.83229C42.1836 3.2331 40.8895 1.81903 41.4647 0.956253C42.1836 -0.122212 45.7782 0.956253 45.7782 1.67523C45.7782 2.25041 46.4972 2.39421 46.8566 2.39421C47.4557 2.15455 49.0853 1.67523 50.8107 1.67523C52.9675 1.67523 58 8.14603 58 11.0219C58 13.3227 56.0829 14.3772 55.1243 14.6168H49.3729C47.935 14.6168 47.0963 16.2944 46.8566 17.1332C46.2575 19.8893 44.5561 25.4015 42.5431 25.4015C40.5301 25.4015 40.0268 27.7981 40.0268 28.9964V40.5H37.87C36.1446 40.5 35.7133 38.5827 35.7133 37.6241V31.5128C35.7133 29.3559 34.9943 30.7938 34.2754 28.9964C33.5565 27.1989 32.8376 27.5584 28.8835 27.5584C25.7202 27.5584 23.0122 26.5998 22.0536 26.1205C21.0951 25.4015 18.9623 24.5387 18.0996 26.8394C17.2368 29.1402 14.8644 29.7153 13.786 29.7153C13.3067 29.7153 11.9887 29.4996 10.5508 28.6369C9.11296 27.7741 8.51386 31.6326 8.39403 33.6697V40.5H6.23725C4.7994 40.5 4.20029 39.3017 4.08047 38.7026V28.2774C4.08047 25.4015 4.7994 26.1205 5.87779 23.604C6.95618 21.0876 5.87779 14.2574 5.15886 11.741C4.58372 9.72787 4.20029 10.9022 4.08047 11.741V19.6498C4.08047 22.1662 0.84487 24.6826 0.125943 21.0877Z" fill="#53AFBE"/>
<path d="M17.0212 32.5914C17.0212 32.5914 13.786 33.0707 12.7076 32.9509C12.8274 33.9095 13.0671 36.1862 13.0671 37.6241C13.0671 39.0619 14.0256 40.1405 14.5049 40.5H18.459C18.5788 40.3802 18.6028 39.9249 17.7401 39.0622C16.8774 38.1994 16.9013 34.3888 17.0212 32.5914Z" fill="#53AFBE"/>
<path d="M32.1186 31.1534H28.1645V38.7026C28.1645 39.2776 29.1231 40.1405 29.6024 40.5H32.8376C33.7003 40.5 32.7177 39.0621 32.1186 38.3432V31.1534Z" fill="#53AFBE"/>
</svg>
