<svg width="33" height="36" viewBox="0 0 33 36" fill="none" xmlns="http://www.w3.org/2000/svg">
<g id="Group">
<path id="Vector" fill-rule="evenodd" clip-rule="evenodd" d="M1.08594 22.0604H6.29962V34.1833H1.08594V22.0604ZM17.7246 18.9414H22.9351V34.1833H17.7246V18.9414ZM26.0392 11.2441H31.2496V34.1833H26.0392V11.2441ZM14.6142 34.1833H9.40365V15.4404H14.6142V34.1833Z" fill="#00ADB9"/>
<path id="Vector_2" fill-rule="evenodd" clip-rule="evenodd" d="M5.89658 33.7799H1.48898V22.463H5.89658V33.7799ZM6.56832 21.1195H0.817245C0.446513 21.1195 0.145508 21.4202 0.145508 21.7912V34.4516C0.145508 34.8227 0.446513 35.1237 0.817245 35.1237H6.56832C6.93905 35.1237 7.2369 34.8227 7.2369 34.4516V21.7912C7.23697 21.4202 6.93905 21.1195 6.56832 21.1195ZM22.5321 33.7799H18.1276V19.3441H22.5321V33.7799ZM23.2038 18.0006H17.4527C17.082 18.0006 16.781 18.3016 16.781 18.6723V34.4516C16.781 34.8227 17.082 35.1237 17.4527 35.1237H23.2038C23.5745 35.1237 23.8756 34.8227 23.8756 34.4516V18.6724C23.8756 18.3016 23.5745 18.0006 23.2038 18.0006ZM30.8466 33.7799H26.4421V11.6468H30.8466V33.7799ZM31.5184 10.3033H25.7705C25.3997 10.3033 25.0987 10.6039 25.0987 10.975V34.4516C25.0987 34.8227 25.3997 35.1237 25.7705 35.1237H31.5184C31.8891 35.1237 32.1901 34.8227 32.1901 34.4516V10.9751C32.1901 10.604 31.8891 10.3033 31.5184 10.3033ZM14.2111 33.7799H9.8067V15.8431H14.2111V33.7799ZM14.8829 14.4992H9.13496C8.76423 14.4992 8.46322 14.8002 8.46322 15.1709V34.4516C8.46322 34.8227 8.76423 35.1237 9.13496 35.1237H14.8829C15.2568 35.1237 15.5546 34.8227 15.5546 34.4516V15.171C15.5547 14.8003 15.2568 14.4992 14.8829 14.4992ZM3.6912 12.8839C4.77807 12.8839 5.65892 13.7654 5.65892 14.8494C5.65892 15.9331 4.77801 16.8149 3.6912 16.8149C2.60749 16.8149 1.72664 15.933 1.72664 14.8494C1.72664 13.7654 2.60756 12.8839 3.6912 12.8839ZM12.0121 5.38299C13.0926 5.38299 13.9766 6.26484 13.9766 7.34882C13.9766 8.43254 13.0926 9.31433 12.0121 9.31433C10.9252 9.31433 10.0444 8.43247 10.0444 7.34882C10.0444 6.26484 10.9253 5.38299 12.0121 5.38299ZM20.3266 9.57483C21.4135 9.57483 22.2944 10.4563 22.2944 11.5403C22.2944 12.624 21.4134 13.5058 20.3266 13.5058C19.2429 13.5058 18.3621 12.624 18.3621 11.5403C18.3621 10.4563 19.243 9.57483 20.3266 9.57483ZM28.6476 2.07394C29.7313 2.07394 30.6121 2.9558 30.6121 4.03978C30.6121 5.12343 29.7312 6.00528 28.6476 6.00528C27.5607 6.00528 26.6799 5.12343 26.6799 4.03978C26.6798 2.9558 27.5607 2.07394 28.6476 2.07394ZM3.6912 18.1584C1.86918 18.1584 0.383101 16.6739 0.383101 14.8494C0.383101 13.0245 1.86918 11.5403 3.6912 11.5403C4.42313 11.5403 5.09809 11.7789 5.64945 12.182L9.15713 9.01869C8.86875 8.52819 8.70082 7.95748 8.70082 7.34882C8.70082 5.52398 10.1869 4.03978 12.0121 4.03978C13.834 4.03978 15.3202 5.52398 15.3202 7.34882C15.3202 7.6454 15.279 7.9331 15.2061 8.2069L17.7379 9.48327C18.3463 8.72118 19.281 8.23128 20.3267 8.23128C21.0586 8.23128 21.7367 8.46989 22.285 8.87259L25.7895 5.70965C25.5043 5.21881 25.3364 4.64844 25.3364 4.03978C25.3363 2.21494 26.8224 0.730469 28.6476 0.730469C30.4696 0.730469 31.9557 2.21494 31.9557 4.03978C31.9557 5.86428 30.4696 7.34882 28.6476 7.34882C27.9156 7.34882 27.2375 7.10989 26.6893 6.70718L23.1817 9.87046C23.47 10.361 23.638 10.9313 23.638 11.5403C23.638 13.3648 22.1519 14.8494 20.3267 14.8494C18.5047 14.8494 17.0186 13.3649 17.0186 11.5403C17.0186 11.2434 17.0598 10.9561 17.1327 10.6819L14.6009 9.40561C13.9925 10.168 13.0578 10.6579 12.0121 10.6579C11.2802 10.6579 10.602 10.4189 10.0538 10.0162L6.54931 13.1795C6.83453 13.67 7.0024 14.2407 7.0024 14.8494C7.00246 16.6739 5.51638 18.1584 3.6912 18.1584Z" fill="#00ADB9"/>
</g>
</svg>
