<svg width="34" height="34" viewBox="0 0 34 34" fill="none" xmlns="http://www.w3.org/2000/svg">
<g id="Group">
<path id="Vector" fill-rule="evenodd" clip-rule="evenodd" d="M6.79396 16.9493C6.79396 15.8998 7.6472 15.0457 8.697 15.0457C9.74679 15.0457 10.6 15.8998 10.6 16.9493V26.5546C10.6 27.604 9.74665 28.4582 8.697 28.4582C7.64734 28.4582 6.79396 27.604 6.79396 26.5546V16.9493ZM28.3466 15.8046C28.345 15.814 28.3436 15.8235 28.3422 15.833L28.3335 15.8916L28.3581 15.9456C28.4307 16.1057 28.4862 16.273 28.5222 16.4451L28.5554 16.6033L28.717 16.6053C29.0908 16.6098 29.4631 16.6543 29.8271 16.7391L30.0322 16.7869L30.0709 16.5798C30.1028 16.409 30.131 16.2375 30.1555 16.0655C30.2413 15.4626 30.2858 14.8526 30.2858 14.2436C30.2858 10.8064 28.9468 7.57325 26.5162 5.1429C24.0858 2.71262 20.8526 1.37305 17.4155 1.37305C13.9786 1.37305 10.7448 2.71262 8.31451 5.14297C5.88416 7.57331 4.54492 10.8066 4.54492 14.2437C4.54492 14.8526 4.58919 15.4629 4.67524 16.0657C4.69982 16.2377 4.7281 16.4093 4.76015 16.5801L4.79897 16.787L5.00399 16.7392C5.36793 16.6543 5.74008 16.6098 6.1137 16.6054L6.27511 16.6034L6.30843 16.4455C6.34477 16.2733 6.40033 16.1059 6.47301 15.9457L6.49921 15.888L6.48765 15.8257C6.48658 15.8198 6.48577 15.8137 6.4849 15.8077C6.41114 15.2902 6.37661 14.7663 6.37661 14.2437C6.37661 11.2949 7.52468 8.52335 9.60995 6.43821C11.6953 4.35307 14.4664 3.20487 17.4155 3.20487C20.3643 3.20487 23.136 4.35287 25.221 6.43821C27.3057 8.52328 28.4541 11.2951 28.4541 14.2437C28.4541 14.7651 28.4198 15.2882 28.3466 15.8046ZM24.2309 16.9493C24.2309 15.8999 25.0844 15.0457 26.1339 15.0457C27.1837 15.0457 28.037 15.8998 28.037 16.9493V26.5546C28.037 27.604 27.1836 28.4582 26.1339 28.4582C25.0845 28.4582 24.2309 27.6039 24.2309 26.5546V16.9493ZM18.7844 27.4773C18.7844 28.2321 18.1703 28.8458 17.4156 28.8458C16.6608 28.8458 16.0471 28.232 16.0471 27.4773C16.0471 26.7227 16.6609 26.1085 17.4156 26.1085C18.1702 26.1085 18.7844 26.7227 18.7844 27.4773Z" fill="#00ADB9"/>
<path id="Vector_2" fill-rule="evenodd" clip-rule="evenodd" d="M28.776 26.1578V17.3453C31.1527 17.4082 33.0672 19.3597 33.0672 21.7512C33.0672 24.143 31.1527 26.0946 28.776 26.1578ZM27.8356 26.5542C27.8356 27.4923 27.0726 28.2563 26.1341 28.2563C25.196 28.2563 24.4326 27.4923 24.4326 26.5542V16.9489C24.4326 16.0105 25.196 15.2468 26.1341 15.2468C27.0726 15.2468 27.8356 16.0105 27.8356 16.9489V26.5542ZM25.3638 6.29519C27.4864 8.41774 28.6559 11.2404 28.6559 14.2432C28.6559 14.7859 28.6189 15.3217 28.5458 15.8356C28.5443 15.8445 28.543 15.8533 28.5417 15.8619C28.6198 16.0338 28.6802 16.2146 28.7197 16.4033C29.1161 16.4081 29.5017 16.4558 29.8731 16.5424C29.9048 16.3733 29.9322 16.2045 29.9563 16.0366C30.0417 15.436 30.0846 14.833 30.0846 14.2432C30.0846 10.8588 28.7668 7.67742 26.3741 5.28496C23.9813 2.89217 20.7998 1.57409 17.4158 1.57409C14.0321 1.57409 10.8501 2.89217 8.45728 5.28496C6.06482 7.67742 4.74674 10.8588 4.74674 14.2432C4.74674 14.833 4.78973 15.4367 4.87504 16.0366C4.89936 16.2045 4.9269 16.3739 4.95847 16.5424C5.32988 16.4558 5.71552 16.4081 6.11151 16.4033C6.15134 16.2147 6.21173 16.0338 6.28979 15.8619C6.28824 15.8533 6.28697 15.8445 6.28569 15.8356C6.21234 15.321 6.17539 14.7859 6.17539 14.2432C6.17539 11.2404 7.34428 8.41767 9.46777 6.29519C11.5906 4.17169 14.413 3.0028 17.4158 3.0028C20.4184 3.00287 23.241 4.17176 25.3638 6.29519ZM8.69723 15.2468C9.63571 15.2468 10.3987 16.0105 10.3987 16.9489V26.5542C10.3987 27.4923 9.63571 28.2563 8.69723 28.2563C7.75874 28.2563 6.99572 27.4923 6.99572 26.5542V16.9489C6.99572 16.0105 7.75874 15.2468 8.69723 15.2468ZM1.76416 21.7512C1.76416 19.3597 3.67868 17.4082 6.05535 17.3453V26.1578C3.67868 26.0946 1.76416 24.143 1.76416 21.7512ZM16.2488 27.4769C16.2488 26.8336 16.7722 26.3095 17.4158 26.3095C18.0594 26.3095 18.5832 26.8336 18.5832 27.4769C18.5832 28.1204 18.0594 28.6439 17.4158 28.6439C16.7723 28.6438 16.2488 28.1204 16.2488 27.4769ZM34.0075 21.7512C34.0075 19.5525 32.6743 17.6601 30.773 16.8386C30.8169 16.6149 30.8558 16.3907 30.8874 16.1688C30.9787 15.5247 31.0252 14.8773 31.0252 14.2432C31.0252 10.6076 29.6098 7.19041 27.0391 4.61994C24.4683 2.04887 21.0505 0.633789 17.4158 0.633789C13.7811 0.633789 10.3632 2.04894 7.79246 4.61994C5.22173 7.19034 3.80631 10.6076 3.80631 14.2432C3.80631 14.8773 3.85246 15.5256 3.94415 16.1688C3.97579 16.3914 4.01462 16.6148 4.05828 16.8386C2.15733 17.6602 0.82373 19.5526 0.82373 21.7512C0.82373 24.6804 3.19026 27.066 6.11151 27.0994C6.36375 28.2958 7.42711 29.1966 8.69709 29.1966C10.1542 29.1966 11.3392 28.011 11.3392 26.5542V16.9489C11.3392 15.4917 10.1542 14.3065 8.69709 14.3065C8.11201 14.3065 7.57119 14.4977 7.13275 14.8207C7.12267 14.6302 7.11602 14.4373 7.11602 14.2432C7.11602 11.4917 8.18724 8.90549 10.1328 6.96027C12.078 5.01479 14.6642 3.94324 17.4158 3.94324C20.1673 3.94324 22.7532 5.01479 24.6987 6.96027C26.644 8.90549 27.7154 11.4917 27.7154 14.2432C27.7154 14.4373 27.7088 14.6302 27.6986 14.8207C27.2599 14.4977 26.7191 14.3065 26.134 14.3065C24.6772 14.3065 23.4922 15.4918 23.4922 16.9489V26.5542C23.4922 27.8504 24.4306 28.9312 25.664 29.1537V31.633C25.664 31.9848 25.3777 32.2712 25.0259 32.2712H18.5239C18.1721 32.2712 17.8858 31.9848 17.8858 31.633V29.531C18.8223 29.3161 19.5237 28.4772 19.5237 27.4768C19.5237 26.3149 18.5777 25.3692 17.4158 25.3692C16.2535 25.3692 15.3084 26.3149 15.3084 27.4768C15.3084 28.4772 16.0091 29.3161 16.9454 29.531V31.633C16.9454 32.5035 17.6534 33.2116 18.5239 33.2116H25.0259C25.8964 33.2116 26.6044 32.5035 26.6044 31.633V29.1537C27.6595 28.9634 28.4994 28.1447 28.7196 27.0994C31.6413 27.066 34.0075 24.6804 34.0075 21.7512Z" fill="#00ADB9"/>
</g>
</svg>
