<svg width="15" height="15" viewBox="0 0 15 15" fill="none" xmlns="http://www.w3.org/2000/svg">
<g clip-path="url(#clip0_737_3810)">
<g clip-path="url(#clip1_737_3810)">
<path d="M13.7533 2.5832C12.996 1.76191 11.9569 1.30957 10.8273 1.30957C9.98291 1.30957 9.20956 1.57653 8.52877 2.10297C8.18525 2.3687 7.87399 2.69381 7.59955 3.07327C7.32523 2.69392 7.01385 2.3687 6.67021 2.10297C5.98954 1.57653 5.21623 1.30957 4.37182 1.30957C3.24215 1.30957 2.203 1.76191 1.44576 2.5832C0.697558 3.39491 0.2854 4.50382 0.2854 5.70581C0.2854 6.94295 0.746441 8.07541 1.73627 9.26982C2.62174 10.3382 3.89437 11.4228 5.36812 12.6787C5.87135 13.1076 6.44176 13.5937 7.03404 14.1115C7.19052 14.2486 7.39129 14.3241 7.59955 14.3241C7.80769 14.3241 8.00858 14.2486 8.16483 14.1118C8.75714 13.5939 9.32788 13.1075 9.83134 12.6783C11.3048 11.4227 12.5775 10.3382 13.463 9.26966C14.4527 8.07541 14.9137 6.94295 14.9137 5.7057C14.9137 4.50382 14.5015 3.39491 13.7533 2.5832Z" fill="#01B2BD"/>
</g>
</g>
<defs>
<clipPath id="clip0_737_3810">
<rect width="14.6352" height="13.8156" fill="white" transform="translate(0.282227 0.509766)"/>
</clipPath>
<clipPath id="clip1_737_3810">
<rect width="14.6283" height="13.8156" fill="white" transform="translate(0.285156 0.509766)"/>
</clipPath>
</defs>
</svg>
