<svg width="17" height="17" viewBox="0 0 17 17" fill="none" xmlns="http://www.w3.org/2000/svg">
<path d="M8.41484 4.625C10.6297 4.625 12.4578 6.45312 12.4578 8.66797C12.4578 10.918 10.6297 12.7109 8.41484 12.7109C6.16484 12.7109 4.37187 10.918 4.37187 8.66797C4.37187 6.45312 6.16484 4.625 8.41484 4.625ZM8.41484 11.3047C9.85625 11.3047 11.0164 10.1445 11.0164 8.66797C11.0164 7.22656 9.85625 6.06641 8.41484 6.06641C6.93828 6.06641 5.77812 7.22656 5.77812 8.66797C5.77812 10.1445 6.97344 11.3047 8.41484 11.3047ZM13.5477 4.48438C13.5477 5.01172 13.1258 5.43359 12.5984 5.43359C12.0711 5.43359 11.6492 5.01172 11.6492 4.48438C11.6492 3.95703 12.0711 3.53516 12.5984 3.53516C13.1258 3.53516 13.5477 3.95703 13.5477 4.48438ZM16.2195 5.43359C16.2898 6.73438 16.2898 10.6367 16.2195 11.9375C16.1492 13.2031 15.868 14.293 14.9539 15.2422C14.0398 16.1562 12.9148 16.4375 11.6492 16.5078C10.3484 16.5781 6.44609 16.5781 5.14531 16.5078C3.87969 16.4375 2.78984 16.1562 1.84062 15.2422C0.926562 14.293 0.645312 13.2031 0.575 11.9375C0.504687 10.6367 0.504687 6.73438 0.575 5.43359C0.645312 4.16797 0.926562 3.04297 1.84062 2.12891C2.78984 1.21484 3.87969 0.933594 5.14531 0.863281C6.44609 0.792969 10.3484 0.792969 11.6492 0.863281C12.9148 0.933594 14.0398 1.21484 14.9539 2.12891C15.868 3.04297 16.1492 4.16797 16.2195 5.43359ZM14.532 13.3086C14.9539 12.2891 14.8484 9.82812 14.8484 8.66797C14.8484 7.54297 14.9539 5.08203 14.532 4.02734C14.2508 3.35938 13.7234 2.79688 13.0555 2.55078C12.0008 2.12891 9.53984 2.23438 8.41484 2.23438C7.25469 2.23438 4.79375 2.12891 3.77422 2.55078C3.07109 2.83203 2.54375 3.35938 2.2625 4.02734C1.84062 5.08203 1.94609 7.54297 1.94609 8.66797C1.94609 9.82812 1.84062 12.2891 2.2625 13.3086C2.54375 14.0117 3.07109 14.5391 3.77422 14.8203C4.79375 15.2422 7.25469 15.1367 8.41484 15.1367C9.53984 15.1367 12.0008 15.2422 13.0555 14.8203C13.7234 14.5391 14.2859 14.0117 14.532 13.3086Z" fill="white"/>
</svg>
