<svg width="49" height="49" viewBox="0 0 49 49" fill="none" xmlns="http://www.w3.org/2000/svg">
<rect x="0.674561" y="1.10059" width="47.4" height="47.4" rx="23.7" fill="#171717"/>
<rect x="0.674561" y="1.10059" width="47.4" height="47.4" rx="23.7" stroke="#525252"/>
<path d="M24.5365 19.6094C27.2436 19.6094 29.478 21.8438 29.478 24.5508C29.478 27.3008 27.2436 29.4922 24.5365 29.4922C21.7865 29.4922 19.5951 27.3008 19.5951 24.5508C19.5951 21.8438 21.7865 19.6094 24.5365 19.6094ZM24.5365 27.7734C26.2983 27.7734 27.7162 26.3555 27.7162 24.5508C27.7162 22.7891 26.2983 21.3711 24.5365 21.3711C22.7319 21.3711 21.3139 22.7891 21.3139 24.5508C21.3139 26.3555 22.7748 27.7734 24.5365 27.7734ZM30.81 19.4375C30.81 20.082 30.2944 20.5977 29.6498 20.5977C29.0053 20.5977 28.4897 20.082 28.4897 19.4375C28.4897 18.793 29.0053 18.2773 29.6498 18.2773C30.2944 18.2773 30.81 18.793 30.81 19.4375ZM34.0756 20.5977C34.1615 22.1875 34.1615 26.957 34.0756 28.5469C33.9897 30.0938 33.6459 31.4258 32.5287 32.5859C31.4115 33.7031 30.0365 34.0469 28.4897 34.1328C26.8998 34.2188 22.1303 34.2188 20.5405 34.1328C18.9936 34.0469 17.6615 33.7031 16.5014 32.5859C15.3842 31.4258 15.0405 30.0938 14.9545 28.5469C14.8686 26.957 14.8686 22.1875 14.9545 20.5977C15.0405 19.0508 15.3842 17.6758 16.5014 16.5586C17.6615 15.4414 18.9936 15.0977 20.5405 15.0117C22.1303 14.9258 26.8998 14.9258 28.4897 15.0117C30.0365 15.0977 31.4115 15.4414 32.5287 16.5586C33.6459 17.6758 33.9897 19.0508 34.0756 20.5977ZM32.0131 30.2227C32.5287 28.9766 32.3998 25.9688 32.3998 24.5508C32.3998 23.1758 32.5287 20.168 32.0131 18.8789C31.6694 18.0625 31.0248 17.375 30.2084 17.0742C28.9194 16.5586 25.9115 16.6875 24.5365 16.6875C23.1186 16.6875 20.1108 16.5586 18.8647 17.0742C18.0053 17.418 17.3608 18.0625 17.017 18.8789C16.5014 20.168 16.6303 23.1758 16.6303 24.5508C16.6303 25.9688 16.5014 28.9766 17.017 30.2227C17.3608 31.082 18.0053 31.7266 18.8647 32.0703C20.1108 32.5859 23.1186 32.457 24.5365 32.457C25.9115 32.457 28.9194 32.5859 30.2084 32.0703C31.0248 31.7266 31.7123 31.082 32.0131 30.2227Z" fill="white"/>
</svg>
