<svg width="48" height="48" viewBox="0 0 48 48" fill="none" xmlns="http://www.w3.org/2000/svg">
<rect x="0.5" y="0.5" width="47" height="47" rx="23.5" fill="#171717"/>
<rect x="0.5" y="0.5" width="47" height="47" rx="23.5" stroke="#525252"/>
<path d="M24 18.8086C26.707 18.8086 28.9414 21.043 28.9414 23.75C28.9414 26.5 26.707 28.6914 24 28.6914C21.25 28.6914 19.0586 26.5 19.0586 23.75C19.0586 21.043 21.25 18.8086 24 18.8086ZM24 26.9727C25.7617 26.9727 27.1797 25.5547 27.1797 23.75C27.1797 21.9883 25.7617 20.5703 24 20.5703C22.1953 20.5703 20.7773 21.9883 20.7773 23.75C20.7773 25.5547 22.2383 26.9727 24 26.9727ZM30.2734 18.6367C30.2734 19.2812 29.7578 19.7969 29.1133 19.7969C28.4688 19.7969 27.9531 19.2812 27.9531 18.6367C27.9531 17.9922 28.4688 17.4766 29.1133 17.4766C29.7578 17.4766 30.2734 17.9922 30.2734 18.6367ZM33.5391 19.7969C33.625 21.3867 33.625 26.1562 33.5391 27.7461C33.4531 29.293 33.1094 30.625 31.9922 31.7852C30.875 32.9023 29.5 33.2461 27.9531 33.332C26.3633 33.418 21.5938 33.418 20.0039 33.332C18.457 33.2461 17.125 32.9023 15.9648 31.7852C14.8477 30.625 14.5039 29.293 14.418 27.7461C14.332 26.1562 14.332 21.3867 14.418 19.7969C14.5039 18.25 14.8477 16.875 15.9648 15.7578C17.125 14.6406 18.457 14.2969 20.0039 14.2109C21.5938 14.125 26.3633 14.125 27.9531 14.2109C29.5 14.2969 30.875 14.6406 31.9922 15.7578C33.1094 16.875 33.4531 18.25 33.5391 19.7969ZM31.4766 29.4219C31.9922 28.1758 31.8633 25.168 31.8633 23.75C31.8633 22.375 31.9922 19.3672 31.4766 18.0781C31.1328 17.2617 30.4883 16.5742 29.6719 16.2734C28.3828 15.7578 25.375 15.8867 24 15.8867C22.582 15.8867 19.5742 15.7578 18.3281 16.2734C17.4688 16.6172 16.8242 17.2617 16.4805 18.0781C15.9648 19.3672 16.0938 22.375 16.0938 23.75C16.0938 25.168 15.9648 28.1758 16.4805 29.4219C16.8242 30.2812 17.4688 30.9258 18.3281 31.2695C19.5742 31.7852 22.582 31.6562 24 31.6562C25.375 31.6562 28.3828 31.7852 29.6719 31.2695C30.4883 30.9258 31.1758 30.2812 31.4766 29.4219Z" fill="white"/>
</svg>
