<svg width="16" height="17" viewBox="0 0 16 17" fill="none" xmlns="http://www.w3.org/2000/svg">
<path d="M7.92656 4.70703C10.1414 4.70703 11.9695 6.53516 11.9695 8.75C11.9695 11 10.1414 12.793 7.92656 12.793C5.67656 12.793 3.88359 11 3.88359 8.75C3.88359 6.53516 5.67656 4.70703 7.92656 4.70703ZM7.92656 11.3867C9.36797 11.3867 10.5281 10.2266 10.5281 8.75C10.5281 7.30859 9.36797 6.14844 7.92656 6.14844C6.45 6.14844 5.28984 7.30859 5.28984 8.75C5.28984 10.2266 6.48516 11.3867 7.92656 11.3867ZM13.0594 4.56641C13.0594 5.09375 12.6375 5.51562 12.1102 5.51562C11.5828 5.51562 11.1609 5.09375 11.1609 4.56641C11.1609 4.03906 11.5828 3.61719 12.1102 3.61719C12.6375 3.61719 13.0594 4.03906 13.0594 4.56641ZM15.7312 5.51562C15.8016 6.81641 15.8016 10.7188 15.7312 12.0195C15.6609 13.2852 15.3797 14.375 14.4656 15.3242C13.5516 16.2383 12.4266 16.5195 11.1609 16.5898C9.86016 16.6602 5.95781 16.6602 4.65703 16.5898C3.39141 16.5195 2.30156 16.2383 1.35234 15.3242C0.438281 14.375 0.157031 13.2852 0.0867186 12.0195C0.0164061 10.7188 0.0164061 6.81641 0.0867186 5.51562C0.157031 4.25 0.438281 3.125 1.35234 2.21094C2.30156 1.29688 3.39141 1.01562 4.65703 0.945312C5.95781 0.875 9.86016 0.875 11.1609 0.945312C12.4266 1.01562 13.5516 1.29688 14.4656 2.21094C15.3797 3.125 15.6609 4.25 15.7312 5.51562ZM14.0437 13.3906C14.4656 12.3711 14.3602 9.91016 14.3602 8.75C14.3602 7.625 14.4656 5.16406 14.0437 4.10938C13.7625 3.44141 13.2352 2.87891 12.5672 2.63281C11.5125 2.21094 9.05156 2.31641 7.92656 2.31641C6.76641 2.31641 4.30547 2.21094 3.28594 2.63281C2.58281 2.91406 2.05547 3.44141 1.77422 4.10938C1.35234 5.16406 1.45781 7.625 1.45781 8.75C1.45781 9.91016 1.35234 12.3711 1.77422 13.3906C2.05547 14.0938 2.58281 14.6211 3.28594 14.9023C4.30547 15.3242 6.76641 15.2188 7.92656 15.2188C9.05156 15.2188 11.5125 15.3242 12.5672 14.9023C13.2352 14.6211 13.7977 14.0938 14.0437 13.3906Z" fill="white"/>
</svg>
