<svg width="10" height="14" viewBox="0 0 10 14" fill="none" xmlns="http://www.w3.org/2000/svg">
<path d="M9.32638 4.4C9.32638 2.2485 7.5971 0.5 5.46924 0.5C3.34138 0.5 1.6121 2.2485 1.6121 4.4C1.6121 7.325 5.46924 11.55 5.46924 11.55C5.46924 11.55 9.32638 7.325 9.32638 4.4ZM4.18352 4.4C4.18352 3.685 4.7621 3.1 5.46924 3.1C6.17638 3.1 6.75495 3.685 6.75495 4.4C6.75495 5.115 6.18281 5.7 5.46924 5.7C4.7621 5.7 4.18352 5.115 4.18352 4.4ZM0.969238 12.2V13.5H9.96924V12.2H0.969238Z" fill="#B8B8B8"/>
</svg>
