<svg width="34" height="36" viewBox="0 0 34 36" fill="none" xmlns="http://www.w3.org/2000/svg">
<g id="Group">
<path id="Vector" fill-rule="evenodd" clip-rule="evenodd" d="M14.2705 9.37955C13.8345 9.86098 13.4735 10.4159 13.1736 10.9907C12.9985 11.3262 12.8435 11.6725 12.7043 12.0244L12.5678 12.3694L12.2128 12.2619C11.5832 12.0713 10.9641 11.8329 10.3773 11.5349L9.86833 11.2763L10.2823 10.8832C11.2993 9.91761 12.5142 9.17977 13.8419 8.72743L15.316 8.22517L14.2705 9.37955ZM17.7711 8.69559C18.9041 9.09137 19.7481 10.2151 20.2827 11.2395C20.4204 11.5032 20.5445 11.7744 20.6587 12.0491L20.8475 12.5031L20.3653 12.5991C19.4726 12.7769 18.5624 12.8776 17.653 12.9111L17.2351 12.9265V8.50837L17.7711 8.69559ZM16.6977 13.4636V17.6583H12.203L12.2185 17.2403C12.2668 15.9386 12.4527 14.6224 12.8137 13.3695L12.9175 13.009L13.2845 13.0868C14.2778 13.2973 15.2942 13.4146 16.3087 13.4499L16.6977 13.4636ZM12.1117 23.4183C11.3912 23.6331 10.6805 23.9065 10.0138 24.2552L9.7264 24.4056L9.51809 24.1569C8.20713 22.5919 7.42294 20.6647 7.27704 18.6276L7.24614 18.1958H11.6662L11.6797 18.5848C11.7304 20.0406 11.9489 21.5197 12.3815 22.9126L12.5024 23.3019L12.1117 23.4183ZM17.2352 18.1958H21.7301L21.7145 18.6138C21.6618 20.0317 21.4457 21.4734 21.0159 22.8277L20.9061 23.1735L20.5507 23.1005C19.5885 22.903 18.6055 22.7911 17.624 22.7564L17.2352 22.7427V18.1958ZM21.9153 12.7614C22.6718 12.53 23.4169 12.2317 24.1098 11.8483L24.4107 11.6819L24.6225 11.9528C25.8108 13.4725 26.5182 15.3018 26.656 17.2266L26.6869 17.6584H22.2668L22.2532 17.2694C22.2063 15.9204 22.0156 14.5566 21.6455 13.2573L21.5372 12.8771L21.9153 12.7614ZM23.3879 25.2103C22.4265 26.0595 21.3056 26.7131 20.091 27.1264L18.617 27.6278L19.6625 26.4742C20.0987 25.9929 20.4594 25.4376 20.7593 24.8628C20.8834 24.625 20.9979 24.3819 21.1037 24.1354L21.2443 23.8081L21.5864 23.9074C22.169 24.0766 22.7427 24.2856 23.2923 24.5433L23.848 24.804L23.3879 25.2103ZM24.9685 6.46314C23.6471 6.46314 22.5723 5.38836 22.5723 4.06698C22.5723 2.74561 23.6471 1.6709 24.9685 1.6709C26.2899 1.6709 27.3646 2.74561 27.3646 4.06698C27.3645 5.38842 26.2899 6.46314 24.9685 6.46314ZM11.3606 31.7867C11.3606 33.1083 10.286 34.1832 8.96445 34.1832C8.32522 34.1832 7.72227 33.9331 7.27019 33.4812C6.81818 33.0294 6.56836 32.4258 6.56836 31.7867C6.56836 30.4653 7.64307 29.3909 8.96445 29.3909C10.2858 29.3909 11.3606 30.4653 11.3606 31.7867Z" fill="white"/>
<path id="Vector_2" fill-rule="evenodd" clip-rule="evenodd" d="M22.6558 17.2554C22.6053 15.8051 22.3927 14.4099 22.033 13.1469C22.8628 12.8931 23.6279 12.5756 24.3048 12.201C25.4112 13.6162 26.1179 15.3579 26.2538 17.2554H22.6558ZM21.9362 23.0321C22.3544 21.6854 22.601 20.1746 22.6558 18.5989H26.2538C26.1099 20.6072 25.3262 22.4412 24.1058 23.8981C23.4533 23.5569 22.7228 23.2666 21.9362 23.0321ZM21.1164 25.0493C21.2427 24.8075 21.362 24.555 21.4739 24.2945C22.0631 24.4656 22.6156 24.6713 23.1209 24.9083C22.2082 25.7144 21.1373 26.3447 19.9609 26.7449C20.3816 26.2807 20.77 25.7138 21.1164 25.0493ZM12.4586 24.2945C12.5706 24.555 12.6897 24.8075 12.8161 25.0493C13.1626 25.7138 13.5508 26.2807 13.9715 26.7448C12.7952 26.3446 11.7242 25.7144 10.8115 24.9082C11.317 24.6713 11.8695 24.4656 12.4586 24.2945ZM11.2767 18.5989C11.3315 20.1746 11.5781 21.6854 11.9964 23.0321C11.2097 23.2666 10.4792 23.5569 9.82684 23.8981C8.60643 22.4412 7.82265 20.6072 7.67883 18.5989H11.2767ZM11.8996 13.1469C11.5399 14.4099 11.3272 15.8051 11.2768 17.2553H7.67883C7.81459 15.3579 8.52132 13.6161 9.62774 12.201C10.3046 12.5755 11.0698 12.8931 11.8996 13.1469ZM12.8161 10.8043C12.6394 11.143 12.4775 11.5017 12.3293 11.8763C11.6899 11.6827 11.0956 11.4478 10.5596 11.1756C11.5247 10.2593 12.6854 9.54728 13.9716 9.10904C13.5509 9.57355 13.1626 10.1405 12.8161 10.8043ZM21.1164 10.8043C20.7699 10.1405 20.3816 9.57362 19.9609 9.10904C21.2472 9.54728 22.4079 10.2593 23.373 11.1756C22.837 11.4478 22.2426 11.6827 21.6032 11.8763C21.455 11.5017 21.2932 11.143 21.1164 10.8043ZM17.6381 12.5084C18.5567 12.4744 19.4478 12.3709 20.2865 12.2039C20.1743 11.9339 20.0545 11.6731 19.9254 11.426C19.2795 10.1883 18.4718 9.36733 17.6381 9.07613V12.5084H17.6381ZM17.6381 17.2554V13.8528C18.7102 13.8154 19.7524 13.6887 20.7318 13.4812C21.0637 14.6333 21.2618 15.915 21.3117 17.2554H17.6381ZM17.6381 22.3537V18.5989H21.3116C21.2568 20.0698 21.024 21.4697 20.6316 22.7057C19.6793 22.5103 18.6707 22.3902 17.6381 22.3537ZM17.6381 23.6979V26.7778C18.4717 26.4863 19.2795 25.6662 19.9253 24.4282C20.0014 24.2822 20.0737 24.1304 20.1439 23.9767C19.3453 23.8249 18.5025 23.7302 17.6381 23.6979ZM16.2945 23.6979C15.43 23.7302 14.5872 23.825 13.7886 23.9767C13.8589 24.1304 13.9311 24.2822 14.0072 24.4283C14.6531 25.6663 15.4608 26.4863 16.2945 26.7779V23.6979ZM16.2945 18.5989V22.3537C15.2618 22.3902 14.2531 22.5103 13.3009 22.7058C12.9086 21.4697 12.6756 20.0698 12.621 18.5989H16.2945V18.5989ZM16.2945 13.8528V17.2553H12.6211C12.6708 15.915 12.8689 14.6333 13.2008 13.4811C14.1802 13.6887 15.2223 13.8155 16.2945 13.8528ZM16.2945 12.5084V9.07613C15.4608 9.36733 14.6531 10.1883 14.0072 11.426C13.8781 11.6731 13.7583 11.9339 13.646 12.2039C14.4847 12.3709 15.3758 12.4745 16.2945 12.5084ZM16.9663 7.27157C11.0908 7.27157 6.31084 12.0518 6.31084 17.9271C6.31084 23.8028 11.0908 28.5821 16.9663 28.5821C22.8417 28.5821 27.6217 23.8028 27.6217 17.9271C27.6217 12.0518 22.8417 7.27157 16.9663 7.27157ZM16.9663 33.2596C25.4205 33.2596 32.2986 26.3814 32.2986 17.9271C32.2986 13.5562 30.4543 9.43853 27.2184 6.5285C26.6246 7.0716 25.8346 7.4037 24.9683 7.4037C23.1284 7.4037 21.6316 5.90681 21.6316 4.06712C21.6316 3.81898 21.6597 3.57722 21.7115 3.34433C20.1835 2.84684 18.5903 2.59494 16.9663 2.59494C8.51198 2.59494 1.63393 9.47285 1.63393 17.9271C1.63393 22.298 3.47819 26.416 6.71408 29.3258C7.30783 28.7823 8.09786 28.4506 8.9642 28.4506C10.804 28.4506 12.3008 29.9471 12.3008 31.7868C12.3008 32.0356 12.2728 32.2767 12.221 32.5099C13.7492 33.0074 15.3423 33.2596 16.9663 33.2596ZM8.9642 33.7802C8.43184 33.7802 7.9314 33.5726 7.55489 33.1962C7.17852 32.8201 6.97122 32.3191 6.97122 31.7867C6.97122 30.6879 7.86524 29.794 8.96426 29.794C10.0634 29.794 10.9574 30.6879 10.9574 31.7867C10.9574 32.886 10.0634 33.7802 8.9642 33.7802ZM24.9683 2.07401C26.0674 2.07401 26.9614 2.96823 26.9614 4.06712C26.9614 5.16601 26.0674 6.06023 24.9683 6.06023C23.8693 6.06023 22.9752 5.16601 22.9752 4.06712C22.9752 2.96823 23.8693 2.07401 24.9683 2.07401ZM28.0107 5.43437C28.199 5.01675 28.3048 4.55413 28.3048 4.06712C28.3048 2.22737 26.8081 0.730469 24.9683 0.730469C23.8578 0.730469 22.873 1.27646 22.2662 2.11331C20.5615 1.54166 18.7815 1.25147 16.9663 1.25147C12.512 1.25147 8.32443 2.98596 5.17473 6.13567C2.02515 9.28531 0.290527 13.4727 0.290527 17.9272C0.290527 22.7293 2.33644 27.25 5.92183 30.42C5.73348 30.8372 5.62775 31.3002 5.62775 31.7869C5.62775 32.6786 5.97483 33.5161 6.60499 34.1464C7.23521 34.7761 8.07307 35.1234 8.9642 35.1234C10.0747 35.1234 11.0595 34.5774 11.6663 33.7412C13.3711 34.3122 15.1511 34.6028 16.9663 34.6028C21.4205 34.6028 25.6082 32.8686 28.7578 29.7186C31.9072 26.569 33.6421 22.3813 33.6421 17.9271C33.6421 13.125 31.5961 8.6043 28.0107 5.43437Z" fill="#00ADB9"/>
</g>
</svg>
