<svg width="67" height="72" viewBox="0 0 67 72" fill="none" xmlns="http://www.w3.org/2000/svg">
<g filter="url(#filter0_d_1509_23488)">
<rect x="15.459" y="15.2197" width="36.1683" height="41.6183" rx="3.96365" fill="#F3F3F3"/>
<rect x="15.7067" y="15.4675" width="35.6729" height="41.1229" rx="3.71592" stroke="#C1272D" stroke-width="0.495456"/>
</g>
<g clip-path="url(#clip0_1509_23488)">
<path d="M42.9021 4.04102H22.7373C21.0211 4.04102 19.6372 5.44988 19.6372 7.17233V43.5817C19.6372 45.3156 21.0318 46.7133 22.7373 46.7133H48.9845C50.7003 46.7133 52.0846 45.3045 52.0846 43.5817V12.5151L42.9021 4.04102Z" fill="white"/>
<path d="M48.9843 47.4248H22.7364C20.6354 47.4248 18.9258 45.7006 18.9258 43.5819V7.1726C18.9258 5.05392 20.6354 3.33008 22.7364 3.33008H42.9019C43.0804 3.33008 43.2526 3.39745 43.3842 3.51899L52.5656 11.993C52.7122 12.1267 52.7948 12.3167 52.7948 12.5153V43.5819C52.7948 45.7006 51.0859 47.4248 48.9843 47.4248V47.4248ZM22.7364 4.75249C21.4192 4.75249 20.3482 5.8377 20.3482 7.1726V43.5812C20.3482 44.9168 21.4192 46.0024 22.7364 46.0024H48.9836C50.3008 46.0024 51.3717 44.9168 51.3717 43.5819V12.8268L42.6237 4.75249H22.7364Z" fill="black"/>
<path d="M22.7363 44.5799C22.2036 44.5799 21.7705 44.1316 21.7705 43.5818V7.17251C21.7705 6.62278 22.2036 6.1748 22.7363 6.1748H42.0676L49.9499 13.4497V43.5818C49.9499 44.1316 49.5169 44.5799 48.9842 44.5799H22.7363Z" fill="#09B1CB"/>
<path d="M42.9019 4.04102V10.586C42.9019 11.6479 43.7603 12.5151 44.8115 12.5151H52.0729L42.9019 4.04102Z" fill="white"/>
<path d="M52.0722 13.2267H44.8108C43.3665 13.2267 42.1899 12.0425 42.1899 10.5864V4.04148C42.1899 3.75916 42.357 3.50287 42.6167 3.39001C42.8748 3.27611 43.1765 3.3275 43.3842 3.51919L52.5552 11.9932C52.7705 12.1919 52.841 12.5027 52.7351 12.7749C52.6285 13.0475 52.3659 13.2267 52.0722 13.2267ZM43.613 5.66635V10.5864C43.613 11.2581 44.1506 11.8043 44.8115 11.8043H50.2549L43.613 5.66635Z" fill="black"/>
<path d="M25.9336 26.7021H45.7768V28.1246H25.9336V26.7021Z" fill="white"/>
<path d="M25.9336 32.208H45.7768V33.6304H25.9336V32.208Z" fill="white"/>
<path d="M35.2974 37.3223H45.7769V38.7447H35.2974V37.3223Z" fill="white"/>
<path d="M25.9336 37.3223H31.7896V38.7447H25.9336V37.3223Z" fill="white"/>
<path d="M25.9336 21.5879H45.7768V23.0103H25.9336V21.5879Z" fill="white"/>
<path d="M25.9336 16.4736H37.9793V17.896H25.9336V16.4736Z" fill="white"/>
<path d="M61.8561 15.1484L60.0048 14.2938L58.8925 13.7874L58.165 13.46L47.541 37.1412L51.2644 38.8401L61.8561 15.1484Z" fill="#FFD166"/>
<path d="M51.2645 39.5521C51.1634 39.5521 51.0631 39.5309 50.9693 39.4882L47.2466 37.789C46.891 37.6261 46.7326 37.208 46.8934 36.851L57.5174 13.1701C57.5941 12.9979 57.7369 12.8628 57.9133 12.7968C58.089 12.7291 58.2845 12.7353 58.4581 12.8124L62.1559 14.5036C62.509 14.6665 62.6663 15.0839 62.5069 15.4395L51.9135 39.1312C51.8361 39.3041 51.6923 39.4399 51.5156 39.5059C51.4343 39.5364 51.3489 39.5521 51.2645 39.5521V39.5521ZM48.4801 36.7885L50.9071 37.8966L60.9203 15.5006L58.5227 14.4019L48.4801 36.7885Z" fill="black"/>
<path d="M58.8633 13.7843L60.052 11.1309L62.3092 12.1629L61.1209 14.8164L58.8633 13.7843Z" fill="white"/>
<path d="M61.1211 15.527C61.0193 15.527 60.919 15.5054 60.8252 15.4624L58.5676 14.4303C58.2131 14.2674 58.055 13.85 58.2144 13.493L59.4028 10.8402C59.4802 10.6673 59.624 10.5322 59.8018 10.4659C59.9782 10.3992 60.1758 10.4048 60.3488 10.4846L62.606 11.5157C62.9609 11.6778 63.1189 12.096 62.9595 12.4523L61.7712 15.1061C61.6934 15.2794 61.55 15.4144 61.3722 15.4808C61.2909 15.512 61.2058 15.527 61.1211 15.527V15.527ZM59.8018 13.4302L60.7648 13.8712L61.3722 12.5158L60.4092 12.0755L59.8018 13.4302Z" fill="black"/>
<path d="M59.4132 28.42L58.1172 27.8324C58.4329 27.1354 58.7985 26.3766 59.1698 25.6036C59.4392 25.0438 59.7125 24.4771 59.9713 23.9225C60.5738 22.6307 61.2103 21.1885 61.3624 20.3015C61.5138 19.4261 61.1377 19.2319 60.4585 18.9646C60.3602 18.9253 60.2699 18.8906 60.1925 18.8552L60.7828 17.5605C60.8398 17.5869 60.9071 17.6126 60.9797 17.6418C61.6197 17.8936 63.1213 18.4853 62.7643 20.5432C62.5844 21.5916 61.9357 23.0766 61.2607 24.5247C60.9992 25.0852 60.7238 25.6571 60.4522 26.2211C60.0852 26.9833 59.7247 27.7324 59.4132 28.42V28.42Z" fill="black"/>
<path d="M47.6896 41.8228L47.541 37.1416L51.2644 38.8404L47.6896 41.8228Z" fill="#FFD166"/>
<path d="M47.6896 42.5339C47.591 42.5339 47.492 42.5138 47.399 42.471C47.15 42.3603 46.9878 42.1168 46.9791 41.8446L46.8305 37.1634C46.8222 36.9175 46.9423 36.6856 47.1472 36.5498C47.351 36.4133 47.6136 36.3932 47.8362 36.4942L51.5585 38.1934C51.7811 38.2958 51.9357 38.5042 51.9683 38.7459C52.001 38.9876 51.9065 39.2303 51.7186 39.3859L48.1449 42.3679C48.0147 42.4776 47.8532 42.5339 47.6896 42.5339ZM48.2887 38.2642L48.3546 40.3419L49.9406 39.0182L48.2887 38.2642Z" fill="black"/>
</g>
<defs>
<filter id="filter0_d_1509_23488" x="0.595294" y="0.356036" width="65.8958" height="71.3455" filterUnits="userSpaceOnUse" color-interpolation-filters="sRGB">
<feFlood flood-opacity="0" result="BackgroundImageFix"/>
<feColorMatrix in="SourceAlpha" type="matrix" values="0 0 0 0 0 0 0 0 0 0 0 0 0 0 0 0 0 0 127 0" result="hardAlpha"/>
<feOffset/>
<feGaussianBlur stdDeviation="7.43185"/>
<feComposite in2="hardAlpha" operator="out"/>
<feColorMatrix type="matrix" values="0 0 0 0 0.0530382 0 0 0 0 0.161216 0 0 0 0 0.195833 0 0 0 0.08 0"/>
<feBlend mode="normal" in2="BackgroundImageFix" result="effect1_dropShadow_1509_23488"/>
<feBlend mode="normal" in="SourceGraphic" in2="effect1_dropShadow_1509_23488" result="shape"/>
</filter>
<clipPath id="clip0_1509_23488">
<rect width="44.0956" height="44.0956" fill="white" transform="translate(18.9258 3.3291)"/>
</clipPath>
</defs>
</svg>
