<svg width="35" height="34" viewBox="0 0 35 34" fill="none" xmlns="http://www.w3.org/2000/svg">
<g id="Group">
<path id="Vector" fill-rule="evenodd" clip-rule="evenodd" d="M11.5394 7.20064C10.2802 7.45113 9.40438 8.51846 9.40438 9.80235V11.2449C9.40438 12.3373 8.51614 13.2255 7.42376 13.2255H3.16421C2.63596 13.2255 2.13867 13.0176 1.76525 12.6442C1.39183 12.2708 1.18359 11.7732 1.18359 11.2449V10.6298C1.18359 6.85779 3.61098 4.49872 6.92453 3.0784C7.2653 2.93236 7.61111 2.79801 7.96048 2.67408C9.71029 2.05339 11.5752 1.6783 13.4167 1.45978C14.7241 1.30461 16.0555 1.22266 17.3726 1.22266C18.6901 1.22266 20.0219 1.30468 21.3297 1.45991C23.1719 1.67863 25.0374 2.05393 26.7877 2.67509C27.1361 2.79869 27.4809 2.9327 27.8207 3.07833C31.1345 4.49865 33.5613 6.85759 33.5613 10.6297V11.2448C33.5613 11.7732 33.3536 12.2708 32.9799 12.6442C32.6061 13.0175 32.1088 13.2255 31.5804 13.2255H27.3211C26.2288 13.2255 25.3409 12.3371 25.3409 11.2448V9.80228C25.3409 8.51846 24.4646 7.451 23.2055 7.20058C21.2887 6.8193 19.3261 6.64613 17.3727 6.64613C15.419 6.64619 13.4562 6.81943 11.5394 7.20064ZM21.2619 24.5261C21.2619 26.5538 19.6126 28.2031 17.5849 28.2031C15.5571 28.2031 13.9076 26.554 13.9076 24.5261C13.9076 22.4982 15.5571 20.849 17.5849 20.849C19.6126 20.8491 21.2619 22.4983 21.2619 24.5261Z" fill="#00ADB9"/>
<path id="Vector_2" fill-rule="evenodd" clip-rule="evenodd" d="M33.2252 11.2456C33.2252 11.6832 33.0541 12.0959 32.7423 12.4074C32.4304 12.7189 32.0181 12.8904 31.5802 12.8904H27.3209C26.4139 12.8904 25.6764 12.1526 25.6764 11.2456V9.80305C25.6764 8.35888 24.6867 7.15365 23.2707 6.87193C21.4 6.49985 19.4155 6.31103 17.3724 6.31103C15.3292 6.31103 13.3444 6.49992 11.4737 6.87193C10.0574 7.15365 9.06837 8.35888 9.06837 9.80305V11.2456C9.06837 12.1526 8.3306 12.8904 7.42362 12.8904H3.164C2.7263 12.8904 2.31405 12.7189 2.0025 12.4074C1.69095 12.0959 1.51919 11.6832 1.51919 11.2456V10.6305C1.51919 7.39931 3.38232 4.96251 7.05658 3.38783C10.9068 1.73737 15.5533 1.55923 17.3724 1.55923C19.1914 1.55923 23.8377 1.7373 27.6882 3.38783C31.3628 4.96258 33.2252 7.39931 33.2252 10.6305V11.2456ZM32.7014 5.31746C31.6426 4.03901 30.134 2.97451 28.2174 2.15277C24.1381 0.404713 19.2741 0.21582 17.3724 0.21582C15.4703 0.21582 10.6063 0.404713 6.52705 2.15277C4.61099 2.97451 3.10214 4.03901 2.04308 5.31746C0.803922 6.81261 0.175781 8.60037 0.175781 10.6305V11.2456C0.175781 12.042 0.486997 12.7921 1.05233 13.3572C1.61773 13.9226 2.36752 14.2338 3.1642 14.2338H7.42349C9.07146 14.2338 10.412 12.8932 10.412 11.2456V9.80305C10.412 9.00825 10.9561 8.34491 11.7357 8.19001C13.5206 7.83473 15.417 7.65477 17.3723 7.65477C19.3277 7.65477 21.2241 7.83479 23.0089 8.18974C23.7879 8.34505 24.333 9.00832 24.333 9.80312V11.2457C24.333 12.8933 25.6729 14.2338 27.3208 14.2338H31.5801C32.3768 14.2338 33.1272 13.9226 33.692 13.3573C34.2576 12.7922 34.5686 12.0421 34.5686 11.2457V10.6306C34.5686 8.60037 33.9408 6.81261 32.7014 5.31746ZM30.6671 31.1039C30.0748 31.8274 29.074 32.2949 28.1188 32.2949H6.62593C5.67045 32.2949 4.67024 31.8274 4.07736 31.1039C3.78012 30.7414 3.45688 30.1545 3.60453 29.4188L5.51548 19.8989C5.82032 18.3809 6.77392 16.7586 8.53689 16.7586H11.6645C11.8838 16.7586 12.0892 16.6515 12.215 16.4718L14.2641 13.5419H20.4803L22.5298 16.4718C22.6556 16.6515 22.8609 16.7586 23.0799 16.7586H26.2075C27.9708 16.7586 28.9241 18.3809 29.2293 19.8989L31.1402 29.4188C31.2879 30.1545 30.9644 30.7414 30.6671 31.1039ZM30.5464 19.6346C30.3135 18.4725 29.8312 17.4672 29.152 16.7282C28.3632 15.8694 27.345 15.4152 26.2076 15.4152H23.4302L21.3807 12.485C21.2549 12.3057 21.0495 12.1985 20.8305 12.1985H13.9145C13.6952 12.1985 13.4895 12.3057 13.3641 12.485L11.3146 15.4152H8.53689C7.39984 15.4152 6.38156 15.8694 5.59247 16.7282C4.91368 17.4672 4.43164 18.4725 4.19834 19.6346L2.28739 29.1546C2.09157 30.1307 2.35805 31.1251 3.03812 31.9555C3.88874 32.9934 5.26318 33.6386 6.62587 33.6386H28.1188C29.4809 33.6386 30.856 32.9934 31.7066 31.9555C32.3864 31.1251 32.6528 30.1303 32.4573 29.1546L30.5464 19.6346ZM17.5847 27.8679C19.427 27.8679 20.9259 26.3693 20.9259 24.5267C20.9259 22.6841 19.427 21.1855 17.5847 21.1855C15.7422 21.1855 14.2432 22.6841 14.2432 24.5267C14.2432 26.3692 15.7422 27.8679 17.5847 27.8679ZM17.5847 19.8422C15.0016 19.8422 12.8998 21.9436 12.8998 24.5267C12.8998 27.1098 15.0016 29.2116 17.5847 29.2116C20.1681 29.2116 22.2693 27.1099 22.2693 24.5267C22.2693 21.9436 20.1681 19.8422 17.5847 19.8422Z" fill="#00ADB9"/>
</g>
</svg>
