<svg width="56" height="55" viewBox="0 0 56 55" fill="none" xmlns="http://www.w3.org/2000/svg">
<path fill-rule="evenodd" clip-rule="evenodd" d="M9.86731 35.1767L28.3816 53.691C29.369 54.6784 31.9364 56.0608 34.3062 53.691L54.6719 33.3253C55.0422 32.8316 55.7828 31.5479 55.7828 30.363V17.7732C55.7828 16.7858 55.4125 14.4407 53.9314 12.9595C52.315 11.3432 49.8592 9.62695 47.2672 9.62695H33.1953C32.4548 9.75038 30.6774 10.2935 29.4925 11.4784L10.9782 29.9927C9.86731 30.9801 8.08993 33.3993 9.86731 35.1767ZM51.3404 17.7732C51.3404 14.4407 48.7484 13.3298 47.2672 13.3298C45.7861 13.3298 42.4535 14.0704 42.4535 17.7732C42.4535 21.4761 45.7861 22.2167 46.8969 22.2167C48.0078 22.2167 51.3404 21.8464 51.3404 17.7732Z" fill="#53AFBE"/>
<path d="M0.98138 27.0309L5.05453 31.104C4.16584 30.2154 6.16492 28.0183 7.27554 27.0309L28.3819 5.92458C29.5668 4.73966 32.0847 4.44343 33.1956 4.44343H45.415L42.4527 1.48114C41.564 0.592458 39.6139 0.123429 38.7499 0H24.679C23.4941 0 21.7172 1.48114 20.9768 2.22172L0.98138 22.2172C-0.795994 23.9945 0.240808 26.1669 0.98138 27.0309Z" fill="#53AFBE"/>
</svg>
