<svg width="51" height="52" viewBox="0 0 51 52" fill="none" xmlns="http://www.w3.org/2000/svg">
<path d="M41.129 12.2692H1.64516C0.855484 12.2692 0.43871 11.1795 0.329032 10.6346V3.44231C0.329032 1.35 2.30323 0.608974 3.29032 0.5H39.8129C42.4452 0.5 43.1032 2.67949 43.1032 3.76923V10.3077C43.1032 11.6154 41.7871 12.1603 41.129 12.2692Z" fill="#53AFBE"/>
<path d="M19.4129 27.6346C21.5187 19.7885 36.0839 19.5705 43.1032 20.4423V17.5C43.1032 16.4538 41.7871 16.1923 41.129 16.1923H1.64516C0.329032 16.1923 0 17.2821 0 17.8269V25.6731C0 26.7192 0.877419 27.4167 1.31613 27.6346H19.4129Z" fill="#53AFBE"/>
<path d="M21.3871 43.3269C19.2813 39.9269 19.1935 34.2821 19.4129 31.8846H1.31613C0.263226 31.8846 0 32.9744 0 33.5192V40.7115C0 42.5423 1.75484 43.2179 2.63226 43.3269H21.3871Z" fill="#53AFBE"/>
<path d="M23.3613 36.7885V28.2885C24.4581 26.8718 28.7574 24.0385 37.1806 24.0385C45.6039 24.0385 49.9032 26.8718 51 28.2885V36.7885C49.2452 41.6923 44.0245 51.5 37.1806 51.5C30.3368 51.5 25.1161 41.6923 23.3613 36.7885Z" fill="#53AFBE"/>
</svg>
