<svg width="22" height="18" viewBox="0 0 22 18" fill="none" xmlns="http://www.w3.org/2000/svg">
<path d="M1.85821 17.543C1.57521 17.543 1.33799 17.4508 1.14654 17.2664C0.955097 17.082 0.859375 16.8536 0.859375 16.581C0.859375 16.3085 0.955097 16.0801 1.14654 15.8957C1.33799 15.7113 1.57521 15.6191 1.85821 15.6191H5.85357V13.6953H2.85705C2.57405 13.6953 2.33682 13.6031 2.14538 13.4187C1.95394 13.2344 1.85821 13.0059 1.85821 12.7334C1.85821 12.4608 1.95394 12.2324 2.14538 12.048C2.33682 11.8636 2.57405 11.7715 2.85705 11.7715H5.85357V9.84762H3.90583C3.62283 9.84762 3.3856 9.75543 3.19416 9.57106C3.00272 9.38669 2.90699 9.15824 2.90699 8.8857C2.90699 8.61315 3.00272 8.3847 3.19416 8.20033C3.3856 8.01596 3.62283 7.92378 3.90583 7.92378H5.85357V5.08611L4.33034 1.91178C4.21381 1.6713 4.20132 1.42681 4.29288 1.17832C4.38444 0.929821 4.55508 0.749461 4.80479 0.637237C5.0545 0.525013 5.30837 0.512989 5.5664 0.601165C5.82443 0.689341 6.01172 0.853669 6.12825 1.09415L8.05101 5.03802H19.6375L18.1143 1.91178C17.9978 1.6713 17.9853 1.42681 18.0769 1.17832C18.1684 0.929821 18.3391 0.749461 18.5888 0.637237C18.8385 0.525013 19.0923 0.512989 19.3504 0.601165C19.6084 0.689341 19.7957 0.853669 19.9122 1.09415L21.6352 4.65325C21.7018 4.78151 21.7517 4.91377 21.785 5.05004C21.8183 5.18631 21.835 5.32659 21.835 5.47088V15.6191C21.835 16.1482 21.6394 16.6011 21.2482 16.9778C20.857 17.3546 20.3867 17.543 19.8373 17.543H1.85821ZM11.8466 10.8095H15.842C16.125 10.8095 16.3622 10.7174 16.5536 10.533C16.7451 10.3486 16.8408 10.1202 16.8408 9.84762C16.8408 9.57507 16.7451 9.34661 16.5536 9.16225C16.3622 8.97788 16.125 8.8857 15.842 8.8857H11.8466C11.5636 8.8857 11.3264 8.97788 11.1349 9.16225C10.9435 9.34661 10.8478 9.57507 10.8478 9.84762C10.8478 10.1202 10.9435 10.3486 11.1349 10.533C11.3264 10.7174 11.5636 10.8095 11.8466 10.8095Z" fill="white"/>
</svg>
