<svg width="67" height="73" viewBox="0 0 67 73" fill="none" xmlns="http://www.w3.org/2000/svg">
<g filter="url(#filter0_d_1509_23494)">
<rect x="15.0728" y="15.209" width="36.6707" height="42.1964" rx="4.0187" fill="#F3F3F3"/>
<rect x="15.3239" y="15.4602" width="36.1683" height="41.694" rx="3.76753" stroke="#C1272D" stroke-width="0.502338"/>
</g>
<g clip-path="url(#clip0_1509_23494)">
<path d="M54.0983 28.6013L46.192 25.293L42.0185 32.6198C41.5583 33.4282 40.3302 33.4282 39.8704 32.6198L35.6973 25.293L27.8754 28.2386C27.0512 28.5485 26.522 29.2337 26.522 29.9886V47.1407H55.3659V30.3181C55.3659 29.5914 54.8747 28.9266 54.0983 28.6013Z" fill="white"/>
<path d="M55.3668 47.8613H26.5229C26.125 47.8613 25.8018 47.5381 25.8018 47.1403V29.9881C25.8018 28.9318 26.5158 27.9794 27.6211 27.5632L35.4436 24.6176C35.7774 24.4926 36.1496 24.6281 36.3246 24.9355L40.4976 32.2627C40.6255 32.4877 40.8726 32.5049 40.9455 32.5049C41.0184 32.5049 41.2649 32.4877 41.3927 32.2634L45.5672 24.9362C45.7474 24.619 46.1397 24.4869 46.4721 24.6281L54.3774 27.9361C55.4164 28.3709 56.0886 29.3061 56.0886 30.3177V47.1403C56.0879 47.5381 55.7657 47.8613 55.3668 47.8613ZM27.244 46.4192H54.6457V30.3177C54.6457 29.8821 54.3298 29.479 53.82 29.2663L46.5037 26.2045L42.6451 32.9771C42.2997 33.5845 41.6638 33.9471 40.9455 33.9478C40.2265 33.9478 39.5906 33.5852 39.2445 32.9771L35.3757 26.1851L28.1295 28.9139C27.5915 29.1156 27.244 29.5374 27.244 29.9881V46.4192Z" fill="black"/>
<path d="M28.686 44.9765V30.2511L34.7323 27.9688L37.9909 33.69C38.5888 34.7375 39.7201 35.3889 40.9454 35.3889C42.1707 35.3889 43.3027 34.7375 43.8999 33.69L47.1258 28.0272L53.2034 30.5711V44.9765H28.686Z" fill="#53AFBE"/>
<path d="M32.5283 14.4683V11.8198C32.5283 7.4443 36.3099 3.87402 40.9442 3.87402C45.5785 3.87402 49.36 7.4443 49.36 11.8198V14.4683C49.36 18.8449 45.5796 22.4141 40.9442 22.4141C36.3088 22.4141 32.5283 18.8449 32.5283 14.4683Z" fill="white"/>
<path d="M40.9444 23.1356C35.9069 23.1356 31.8081 19.2474 31.8081 14.4687V11.8202C31.8081 7.04154 35.9069 3.15332 40.9444 3.15332C45.9818 3.15332 50.0813 7.04154 50.0813 11.8202V14.4687C50.0813 19.2481 45.9818 23.1356 40.9444 23.1356ZM40.9444 4.59552C36.7016 4.59552 33.2503 7.83693 33.2503 11.8202V14.4687C33.2503 18.452 36.7023 21.6934 40.9444 21.6934C45.1864 21.6934 48.6391 18.452 48.6391 14.4687V11.8202C48.6391 7.83693 45.1871 4.59552 40.9444 4.59552Z" fill="black"/>
</g>
<defs>
<filter id="filter0_d_1509_23494" x="0.0026226" y="0.138853" width="66.8107" height="72.3366" filterUnits="userSpaceOnUse" color-interpolation-filters="sRGB">
<feFlood flood-opacity="0" result="BackgroundImageFix"/>
<feColorMatrix in="SourceAlpha" type="matrix" values="0 0 0 0 0 0 0 0 0 0 0 0 0 0 0 0 0 0 127 0" result="hardAlpha"/>
<feOffset/>
<feGaussianBlur stdDeviation="7.53507"/>
<feComposite in2="hardAlpha" operator="out"/>
<feColorMatrix type="matrix" values="0 0 0 0 0.0530382 0 0 0 0 0.161216 0 0 0 0 0.195833 0 0 0 0.08 0"/>
<feBlend mode="normal" in2="BackgroundImageFix" result="effect1_dropShadow_1509_23494"/>
<feBlend mode="normal" in="SourceGraphic" in2="effect1_dropShadow_1509_23494" result="shape"/>
</filter>
<clipPath id="clip0_1509_23494">
<rect width="44.7081" height="44.7081" fill="white" transform="translate(18.5903 3.15332)"/>
</clipPath>
</defs>
</svg>
