<svg width="48" height="48" viewBox="0 0 48 48" fill="none" xmlns="http://www.w3.org/2000/svg">
<rect x="0.5" y="0.5" width="47" height="47" rx="23.5" fill="#171717"/>
<rect x="0.5" y="0.5" width="47" height="47" rx="23.5" stroke="#525252"/>
<path d="M30.5 22.425V18.6C28.3896 18.6 27.4565 16.2 27.2537 15H24.0072V27.6C24.0072 29.4 22.5869 29.4 22.3838 29.4C22.1807 29.4 20.5578 29.4 20.5578 27.6C20.5578 26.16 21.7751 25.8 22.3838 25.8V22.2C18.1633 22.2 17.3788 25.8 17.514 27.6C17.514 29.4 18.488 33 22.3838 33C26.2796 33 27.3888 29.7 27.4564 28.05V20.85C27.9434 21.57 29.6884 22.2 30.5 22.425Z" fill="white"/>
</svg>
