<svg width="49" height="49" viewBox="0 0 49 49" fill="none" xmlns="http://www.w3.org/2000/svg">
<rect x="1.07458" y="1.10059" width="47.4" height="47.4" rx="23.7" fill="#171717"/>
<rect x="1.07458" y="1.10059" width="47.4" height="47.4" rx="23.7" stroke="#525252"/>
<path d="M33.6628 20.082C33.6628 20.2969 33.6628 20.4688 33.6628 20.6836C33.6628 26.6562 29.1511 33.4883 20.8581 33.4883C18.28 33.4883 15.9167 32.7578 13.9402 31.4688C14.2839 31.5117 14.6277 31.5547 15.0144 31.5547C17.1198 31.5547 19.0534 30.8242 20.6003 29.6211C18.6238 29.5781 16.948 28.2891 16.3894 26.4844C16.6902 26.5273 16.948 26.5703 17.2488 26.5703C17.6355 26.5703 18.0652 26.4844 18.4089 26.3984C16.3464 25.9688 14.7995 24.1641 14.7995 21.9727V21.9297C15.4011 22.2734 16.1316 22.4453 16.862 22.4883C15.6159 21.6719 14.8425 20.2969 14.8425 18.75C14.8425 17.8906 15.0573 17.1172 15.4441 16.4727C17.6784 19.1797 21.03 20.9844 24.7683 21.1992C24.6823 20.8555 24.6394 20.5117 24.6394 20.168C24.6394 17.6758 26.6589 15.6562 29.1511 15.6562C30.4402 15.6562 31.6003 16.1719 32.4597 17.0742C33.448 16.8594 34.4363 16.4727 35.2956 15.957C34.9519 17.0312 34.2644 17.8906 33.3191 18.4492C34.2214 18.3633 35.1238 18.1055 35.8972 17.7617C35.2956 18.6641 34.5222 19.4375 33.6628 20.082Z" fill="white"/>
</svg>
