<svg width="19" height="15" viewBox="0 0 19 15" fill="none" xmlns="http://www.w3.org/2000/svg">
<path d="M16.2772 4.01172C16.2772 4.1875 16.2772 4.32812 16.2772 4.50391C16.2772 9.39062 12.5858 14.9805 5.80063 14.9805C3.69126 14.9805 1.75766 14.3828 0.140477 13.3281C0.421727 13.3633 0.702977 13.3984 1.01938 13.3984C2.74204 13.3984 4.32407 12.8008 5.5897 11.8164C3.97251 11.7812 2.60141 10.7266 2.14438 9.25C2.39048 9.28516 2.60141 9.32031 2.84751 9.32031C3.16391 9.32031 3.51548 9.25 3.79673 9.17969C2.10923 8.82812 0.843602 7.35156 0.843602 5.55859V5.52344C1.33579 5.80469 1.93345 5.94531 2.5311 5.98047C1.51157 5.3125 0.878758 4.1875 0.878758 2.92188C0.878758 2.21875 1.05454 1.58594 1.37095 1.05859C3.19907 3.27344 5.94126 4.75 8.99985 4.92578C8.92954 4.64453 8.89438 4.36328 8.89438 4.08203C8.89438 2.04297 10.5467 0.390625 12.5858 0.390625C13.6405 0.390625 14.5897 0.8125 15.2928 1.55078C16.1014 1.375 16.91 1.05859 17.6131 0.636719C17.3319 1.51562 16.7694 2.21875 15.9959 2.67578C16.7342 2.60547 17.4725 2.39453 18.1053 2.11328C17.6131 2.85156 16.9803 3.48438 16.2772 4.01172Z" fill="white"/>
</svg>
