<svg width="60" height="60" viewBox="0 0 60 60" fill="none" xmlns="http://www.w3.org/2000/svg">
<circle cx="30.2986" cy="29.8923" r="29.3923" fill="url(#paint0_linear_25_1308)"/>
<path d="M43.993 42.2148V32.9648M39.368 37.5898H48.618M33.2014 32.9648H27.0347C24.1614 32.9648 22.7247 32.9648 21.5915 33.4343C20.0805 34.0601 18.88 35.2606 18.2541 36.7716C17.7847 37.9049 17.7847 39.3415 17.7847 42.2148M38.5972 14.9131C40.8571 15.8279 42.4514 18.0435 42.4514 20.6315C42.4514 23.2195 40.8571 25.4351 38.5972 26.3499M35.5139 20.6315C35.5139 24.0373 32.7529 26.7982 29.3472 26.7982C25.9414 26.7982 23.1805 24.0373 23.1805 20.6315C23.1805 17.2258 25.9414 14.4648 29.3472 14.4648C32.7529 14.4648 35.5139 17.2258 35.5139 20.6315Z" stroke="white" stroke-width="2" stroke-linecap="round" stroke-linejoin="round"/>
<defs>
<linearGradient id="paint0_linear_25_1308" x1="0.906372" y1="29.8923" x2="59.6909" y2="29.8923" gradientUnits="userSpaceOnUse">
<stop offset="0.125" stop-color="#EB414B"/>
<stop offset="1" stop-color="#FF5309"/>
</linearGradient>
</defs>
</svg>
