<svg width="60" height="60" viewBox="0 0 60 60" fill="none" xmlns="http://www.w3.org/2000/svg">
<circle cx="29.673" cy="29.9606" r="29.3923" fill="#01ACBC"/>
<path d="M43.3673 42.2832V33.0332M38.7423 37.6582H47.9923M32.5756 33.0332H26.4089C23.5356 33.0332 22.099 33.0332 20.9657 33.5026C19.4547 34.1285 18.2542 35.329 17.6283 36.84C17.1589 37.9732 17.1589 39.4099 17.1589 42.2832M37.9714 14.9815C40.2314 15.8963 41.8256 18.1119 41.8256 20.6999C41.8256 23.2878 40.2314 25.5035 37.9714 26.4183M34.8881 20.6999C34.8881 24.1056 32.1272 26.8665 28.7214 26.8665C25.3157 26.8665 22.5548 24.1056 22.5548 20.6999C22.5548 17.2941 25.3157 14.5332 28.7214 14.5332C32.1272 14.5332 34.8881 17.2941 34.8881 20.6999Z" stroke="white" stroke-width="2" stroke-linecap="round" stroke-linejoin="round"/>
</svg>
