<svg width="20" height="15" viewBox="0 0 20 15" fill="none" xmlns="http://www.w3.org/2000/svg">
<path d="M18.8973 3.0625C19.3191 4.53906 19.3191 7.70312 19.3191 7.70312C19.3191 7.70312 19.3191 10.832 18.8973 12.3438C18.6863 13.1875 18.0183 13.8203 17.2098 14.0312C15.698 14.418 9.72147 14.418 9.72147 14.418C9.72147 14.418 3.70976 14.418 2.19804 14.0312C1.38944 13.8203 0.721475 13.1875 0.510537 12.3438C0.0886621 10.832 0.0886621 7.70312 0.0886621 7.70312C0.0886621 7.70312 0.0886621 4.53906 0.510537 3.0625C0.721475 2.21875 1.38944 1.55078 2.19804 1.33984C3.70976 0.917969 9.72147 0.917969 9.72147 0.917969C9.72147 0.917969 15.698 0.917969 17.2098 1.33984C18.0183 1.55078 18.6863 2.21875 18.8973 3.0625ZM7.75272 10.5508L12.7449 7.70312L7.75272 4.85547V10.5508Z" fill="white"/>
</svg>
